<?xml version="1.0" standalone="no"?>
<!DOCTYPE svg PUBLIC "-//W3C//DTD SVG 20010904//EN"
 "http://www.w3.org/TR/2001/REC-SVG-20010904/DTD/svg10.dtd">
<svg version="1.0" xmlns="http://www.w3.org/2000/svg"
 width="1455.000000pt" height="1455.000000pt" viewBox="0 0 1455.000000 1455.000000"
 preserveAspectRatio="xMidYMid meet">
<metadata>
Created by potrace 1.11, written by Peter Selinger 2001-2013
</metadata>
<g transform="translate(0.000000,1455.000000) scale(0.100000,-0.100000)"
fill="#000000" stroke="none">
<path d="M5960 14535 c-279 -57 -491 -273 -545 -556 -3 -12 -13 -66 -24 -118
-20 -94 -26 -126 -36 -186 -3 -16 -14 -75 -25 -130 -10 -55 -21 -118 -24 -140
-4 -22 -11 -65 -16 -95 -5 -30 -12 -71 -15 -90 -3 -19 -7 -46 -10 -60 -3 -14
-7 -47 -11 -75 -3 -27 -8 -59 -10 -70 -2 -11 -6 -41 -9 -66 -3 -25 -7 -55 -9
-66 -3 -11 -7 -44 -11 -74 -3 -30 -8 -65 -10 -79 -3 -14 -7 -52 -10 -85 -3
-33 -7 -71 -10 -85 -2 -14 -6 -54 -10 -90 -3 -36 -8 -81 -10 -100 -5 -38 -8
-82 -29 -330 -3 -30 -8 -100 -11 -155 -3 -55 -8 -127 -10 -160 -28 -431 -24
-1202 9 -1690 14 -199 16 -222 20 -265 3 -25 8 -75 11 -112 3 -37 8 -87 11
-110 3 -24 7 -56 8 -73 10 -97 18 -164 22 -196 2 -20 7 -54 9 -75 8 -67 25
-187 35 -249 44 -275 66 -401 91 -535 17 -85 33 -166 35 -180 3 -14 21 -97 40
-185 20 -88 37 -169 40 -180 45 -219 225 -858 333 -1181 98 -292 277 -777 340
-919 5 -11 16 -36 24 -55 126 -294 168 -393 177 -407 5 -10 23 -48 39 -84 72
-161 242 -508 347 -705 95 -179 264 -483 342 -614 25 -41 50 -84 56 -95 6 -11
31 -53 56 -93 25 -40 50 -81 55 -90 6 -9 17 -28 26 -42 373 -591 677 -1024
1073 -1525 117 -148 122 -153 182 -226 22 -25 52 -62 67 -82 16 -20 43 -53 61
-74 18 -21 78 -90 132 -153 54 -63 113 -131 130 -150 17 -19 55 -62 84 -95
195 -222 375 -411 705 -740 336 -336 387 -384 440 -420 50 -34 153 -84 198
-96 78 -21 102 -24 212 -23 91 1 124 6 190 28 241 82 419 265 481 496 22 84
23 253 1 335 -9 33 -111 341 -227 685 -116 344 -212 632 -214 640 -4 14 -141
427 -153 460 -6 16 -750 2235 -998 2975 -214 639 -982 2927 -988 2945 -3 8
-90 267 -193 575 -102 308 -377 1129 -610 1825 -234 696 -515 1535 -625 1865
-110 330 -203 607 -206 615 -3 8 -7 20 -9 25 -8 31 -206 614 -215 635 -95 217
-254 359 -464 416 -79 21 -252 26 -335 9z"/>
<path d="M10939 9705 c-243 -34 -461 -123 -654 -267 -276 -208 -466 -504 -536
-838 -29 -140 -31 -372 -5 -510 19 -101 71 -269 108 -347 26 -55 98 -186 107
-193 3 -3 22 -27 41 -55 107 -154 298 -316 484 -408 114 -56 258 -106 356
-122 42 -7 98 -16 125 -21 29 -6 253 -5 303 1 263 30 525 140 722 304 251 209
438 526 485 824 3 17 10 57 15 87 15 93 5 323 -19 440 -57 273 -177 496 -381
710 -273 285 -752 449 -1151 395z"/>
<path d="M3097 9545 c-1 -2 -32 -5 -68 -8 -207 -18 -453 -129 -626 -284 -149
-133 -281 -350 -327 -538 -26 -105 -28 -118 -31 -250 -3 -117 0 -162 21 -275
5 -32 170 -527 634 -1910 638 -1903 1113 -3318 1120 -3340 37 -118 152 -300
255 -403 334 -334 818 -423 1252 -232 176 78 347 221 460 385 182 265 240 599
158 909 -17 63 -558 1692 -602 1811 -3 8 -216 645 -474 1415 -258 770 -508
1515 -555 1655 -47 140 -87 260 -88 265 -1 6 -4 15 -7 20 -4 6 -12 28 -19 50
-7 22 -31 76 -53 120 -187 367 -553 599 -963 609 -46 2 -85 2 -87 1z"/>
</g>
</svg>
