<?xml version="1.0" encoding="utf-8"?>
<!-- Generator: Adobe Illustrator 24.1.0, SVG Export Plug-In . SVG Version: 6.00 Build 0)  -->
<svg version="1.1" id="ad0c1ec4-bb95-45b0-bb15-db7da0a16091"
	 xmlns="http://www.w3.org/2000/svg" xmlns:xlink="http://www.w3.org/1999/xlink" x="0px" y="0px" viewBox="0 0 974 757.2"
	 style="enable-background:new 0 0 974 757.2;" xml:space="preserve">
<style type="text/css">
	.st0{fill:#F2F2F2;}
	.st1{fill:none;stroke:#3F3D56;stroke-width:2;stroke-miterlimit:10;}
	.st2{fill:#EA87A0;}
	.st3{fill:#3F3D56;}
	.st4{fill:#575A89;}
	.st5{fill:#FFFFFF;}
	.st6{fill:#FFB9B9;}
	.st7{fill:#2F2E41;}
</style>
<rect x="264" y="27" class="st0" width="248" height="272"/>
<rect x="289" y="1" class="st1" width="248" height="272"/>
<rect x="302" y="242.3" class="st2" width="13.4" height="13.4"/>
<rect x="321.3" y="242.3" class="st3" width="13.4" height="13.4"/>
<rect x="340.6" y="242.3" class="st4" width="13.4" height="13.4"/>
<rect x="452" y="248.1" class="st3" width="52" height="2.1"/>
<rect x="452" y="254.4" class="st3" width="52" height="2.1"/>
<rect x="452" y="260.8" class="st3" width="52" height="2.1"/>
<path class="st0" d="M578.1,576.9c-27.7,0-50.1-22.4-50.1-50.1v0v-58.4c0-116.8,94.7-211.5,211.5-211.5h0
	c116.8,0,211.5,94.7,211.5,211.5v45.9c0,34.6-28,62.6-62.6,62.6h0"/>
<path class="st3" d="M909.4,639.9v-2c34,0,61.6-27.6,61.6-61.6V456.4c0-116.1-94.4-210.5-210.5-210.5S550,340.3,550,456.4v132.4
	c0,27.1,22,49.1,49.1,49.1v2c-28.2,0-51.1-22.9-51.1-51.1V456.4c0-117.2,95.3-212.5,212.5-212.5S973,339.2,973,456.4v119.9
	C973,611.4,944.5,639.9,909.4,639.9z"/>
<rect x="547" y="562.9" class="st3" width="427" height="176"/>
<path class="st5" d="M585.4,378.7c7.7-27.6,28.5-49.7,55.6-59.2c3.6-1.2,2.1-7-1.6-5.8c-29.1,10.1-51.4,33.8-59.7,63.4
	C578.6,380.9,584.4,382.4,585.4,378.7L585.4,378.7z"/>
<path class="st5" d="M574.1,411.5c3.9,0,3.9-6,0-6C570.2,405.5,570.2,411.5,574.1,411.5z"/>
<g>
	
		<rect x="200" y="342.9" transform="matrix(0.3024 -0.9532 0.9532 0.3024 -192.1826 521.1937)" class="st0" width="120" height="98"/>
	
		<rect x="262.1" y="333.8" transform="matrix(0.3024 -0.9532 0.9532 0.3024 -152.8949 497.0605)" class="st3" width="2.1" height="38.5"/>
	
		<rect x="269.3" y="331.4" transform="matrix(0.3024 -0.9532 0.9532 0.3024 -153.9953 508.3475)" class="st3" width="2.1" height="56"/>
	
		<rect x="258" y="346.5" transform="matrix(0.3024 -0.9532 0.9532 0.3024 -167.9263 502.117)" class="st3" width="2.1" height="38.5"/>
	
		<rect x="253.3" y="361.5" transform="matrix(0.3024 -0.9532 0.9532 0.3024 -185.524 508.0369)" class="st3" width="2.1" height="38.5"/>
	
		<rect x="265.2" y="344.2" transform="matrix(0.3024 -0.9532 0.9532 0.3024 -169.0267 513.4041)" class="st3" width="2.1" height="56"/>
	
		<rect x="264" y="347.9" transform="matrix(0.3024 -0.9532 0.9532 0.3024 -173.4261 514.884)" class="st3" width="2.1" height="56"/>
	
		<rect x="262.8" y="351.7" transform="matrix(0.3024 -0.9532 0.9532 0.3024 -177.8255 516.364)" class="st3" width="2.1" height="56"/>
	
		<rect x="239.4" y="378.6" transform="matrix(0.3024 -0.9532 0.9532 0.3024 -201.534 501.9956)" class="st2" width="5.6" height="20.1"/>
	<path class="st2" d="M69.1,269.5l-4.4,10.3l4.9,66.9c0,0-2.7,3.8,0,6.5s2.2,3.8,2.2,3.8s-4.4,0-2.2,3.3s2.2,4.9,2.2,4.9l-1.1,3.3
		c0,0,2.2,2.7,2.2,4.9s14.1,69.1,14.1,69.1l13.6-26.7l-7.6-106.1L69.1,269.5z"/>
	<path class="st6" d="M208.8,439.7c0,0,29.7-1.2,39.2,9.3s-37.2,2.9-39.8-0.1S208.8,439.7,208.8,439.7z"/>
	<path class="st7" d="M62.1,703.6l-6,19.6c0,0-8.7,19,3.3,21.8s23.4-7.6,23.4-7.6v-13.1l4.4-20.7H62.1z"/>
	<path class="st7" d="M160,703.6c0,0-2.7,37,3.3,39.2s27.2,2.7,27.7,0s7.1-5.4,2.2-9.2s-8.2-26.1-8.2-26.1L160,703.6z"/>
	<path class="st7" d="M105,353.3v16.3c0,0-17.9,37.5-24.5,96.8C74,525.7,51.7,706.3,57.2,709.6s64.2,5.4,65.8,1.1
		s3.3-131.6,3.3-131.6l20.1-89.8c0,0,3.8,32.1,7.1,37.5s-5.4,182.2,0,184.9s78.9,7.6,77.8-1.1s-25.6-244.8-25.6-244.8
		s-12.5-111.5-16.3-112.6s-38.6-2.2-44.1-1.1S105,353.3,105,353.3z"/>
	<circle class="st6" cx="146.4" cy="187.4" r="31"/>
	<path class="st6" d="M152.9,213.5c0,0-15.8,24.5-12,31c3.8,6.5-40.3-6.5-40.3-6.5s26.7-32.6,26.1-36.4S152.9,213.5,152.9,213.5z"/>
	<path class="st2" d="M185.5,249.9c0,0-28.8-9.2-32.6-13.1c-2.4-2.5-4.6-5.2-6.5-8.2c0,0-34.8-4.9-35.9-4.9s-9.2,9.8-11.4,12
		s-29.9,16.9-29.9,20.7s-4.4,23.4-4.4,23.4s9.8,20.1,15.8,24.5s7.6,3.3,8.2,10.3s8.2,18.5,8.2,18.5s4.9,12.5,3.8,16.3s-6,7.1,5.4,6
		s68,2.2,68-3.8s-10.9-63.1-10.9-63.1L185.5,249.9z"/>
	<path class="st2" d="M175.2,251l10.3-1.1c0,0,3.8,2.2,4.4,23.4s0.5,72.3,4.4,76.7s19.6,71.8,19.6,71.8s4.4,1.1,4.4,4.9
		s4.9,7.1,2.7,11.4c-2.2,4.4,2.2,3.3-0.5,6s-15.8,8.2-16.3,4.9s1.6-3.8-0.5-4.9s-2.2-1.6-2.7-5.4s-5.4-7.6-4.9-9.2
		s-23.9-49-23.9-50.6s-1.6-7.6-3.8-8.7s-5.4-2.2-3.8-4.9s-4.4-84.3-4.4-84.3L175.2,251z"/>
	<path class="st7" d="M172.6,167.7c-9.5-10.3-24.4-15.8-38.1-12.7s-25.2,15.2-26.3,29.2c-0.2,2.9,0,5.8-0.8,8.6
		c-1.2,4.7-5,8.4-6.3,13c-0.9,3.1-0.6,6.5-1.5,9.6c-1.7,5.7-7,9.5-11.1,13.9c-1.6,1.6-2.9,3.6-3.5,5.8c-0.4,1.9-0.4,3.9-0.3,5.9
		c0.2,10.6-3.8,20.9-11,28.6c4.3-3.2,8.8-5.8,13.7-8c-2.4,7.7-0.2,16.7,5.8,22s15.7,6.1,22.3,1.4c3.9-2.8,6.4-7,8.8-11.1l9.1-15.6
		c1.7-2.8,3.4-5.7,6-7.6c2.1-1.5,4.6-2.3,6.8-3.9c5.3-3.8,6.8-11.3,5.8-17.7s-3.9-12.5-5.6-18.8c-1.3-5-1.7-10.7,1.2-15
		c3.9-5.6,12-6.3,17.4-10.7c2-1.6,2.9-3.6,4.4-5.6c1.3-1.9,1.7-1.2,3.7-1.3C178.8,177.5,174.7,170,172.6,167.7z"/>
	<ellipse class="st6" cx="145.5" cy="198.2" rx="2.5" ry="6"/>
</g>
<circle class="st0" cx="421" cy="598.9" r="32"/>
<circle class="st0" cx="101" cy="48.9" r="32"/>
<circle class="st0" cx="771" cy="123.9" r="32"/>
<g>
	<path class="st2" d="M814.8,359.9h-9.8v-19.1c0-21.6-17.2-39.5-38.8-39.9c-21.8-0.2-39.6,17.2-39.9,39c0,0.1,0,0.2,0,0.3v19.7h-9.8
		c-9,0-16.4,7.3-16.4,16.4V455c0,9,7.3,16.4,16.4,16.4h98.3c9,0,16.4-7.4,16.4-16.4v-78.6C831.1,367.3,823.8,360,814.8,359.9z
		 M771.4,411.1v28.2c0,3.1-2.4,5.7-5.5,5.9c-3.2,0.1-5.9-2.3-6-5.5c0-0.1,0-0.2,0-0.3V411c-6.5-3.2-9.2-11-6-17.5
		c3.2-6.5,11-9.2,17.5-6s9.2,11,6,17.5C776.1,407.6,774,409.8,771.4,411.1L771.4,411.1z M793.5,359.9h-55.7v-19.7
		c0-15.4,12.5-27.9,27.9-27.9s27.9,12.5,27.9,27.9L793.5,359.9z"/>
	<path class="st1" d="M812.7,361.8h-9.8v-19.1c0-21.6-17.2-39.5-38.8-39.9c-21.8-0.2-39.6,17.2-39.9,39c0,0.1,0,0.2,0,0.3v19.7h-9.8
		c-9,0-16.4,7.3-16.4,16.4v78.6c0,9,7.3,16.4,16.4,16.4h98.3c9,0,16.4-7.4,16.4-16.4v-78.6C829,369.2,821.7,361.9,812.7,361.8z
		 M769.2,413v28.2c0,3.1-2.4,5.7-5.5,5.9c-3.2,0.1-5.9-2.3-6-5.5c0-0.1,0-0.2,0-0.3V413c-6.5-3.2-9.2-11-6-17.5
		c3.2-6.5,11-9.2,17.5-6s9.2,11,6,17.5C774,409.6,771.9,411.7,769.2,413L769.2,413z M791.4,361.8h-55.7v-19.7
		c0-15.4,12.5-27.9,27.9-27.9c15.4,0,27.9,12.5,27.9,27.9L791.4,361.8z"/>
</g>
<g id="circle">
	<path class="st3" d="M413,49v22c36.5,0,66,29.5,66,66c0,17.5-7,34.3-19.3,46.7l15.6,15.6c34.4-34.4,34.4-90.1,0-124.5
		C458.7,58.3,436.3,49,413,49z"/>
	<path class="st4" d="M475.2,199.2l-15.6-15.6c-23.3,23.3-60.3,25.8-86.6,5.9l-13.3,17.5C394.8,233.7,444.1,230.3,475.2,199.2z"/>
	<path class="st2" d="M347,137c0-36.5,29.5-66,66-66V49c-48.6,0-88,39.4-88,88c0,27.5,12.9,53.4,34.8,70.1l13.3-17.5
		C356.6,177.1,347,157.6,347,137z"/>
</g>
</svg>
