<?xml version="1.0" encoding="utf-8"?>
<!-- Generator: Adobe Illustrator 24.1.0, SVG Export Plug-In . SVG Version: 6.00 Build 0)  -->
<svg version="1.1" id="e4bbe722-77af-4dff-9d23-13f94132c30a"
	 xmlns="http://www.w3.org/2000/svg" xmlns:xlink="http://www.w3.org/1999/xlink" x="0px" y="0px" viewBox="0 0 921.7 653.4"
	 style="enable-background:new 0 0 921.7 653.4;" xml:space="preserve">
<style type="text/css">
	.st0{fill:#D0CDE1;}
	.st1{fill:#EA87A0;}
	.st2{opacity:0.2;enable-background:new    ;}
	.st3{fill:#FFB8B8;}
	.st4{fill:#2F2E41;}
	.st5{fill:#3F3D56;}
</style>
<ellipse class="st0" cx="343.3" cy="642.9" rx="221" ry="10.5"/>
<polygon class="st1" points="458.3,218.4 462.3,211.4 442.3,207.4 440.3,217.4 443.3,225.4 "/>
<polygon class="st2" points="458.3,218.4 462.3,211.4 442.3,207.4 440.3,217.4 443.3,225.4 "/>
<circle class="st3" cx="446.8" cy="187.9" r="26"/>
<polygon class="st3" points="424.8,187.9 403.8,222.9 434.8,240.9 450.8,203.9 "/>
<path class="st1" d="M422.8,228.9l-27-11c0,0-41,7-45,20s-4,118-4,118s-10,26,4,27c0,0-4,6,0,7s45,0,61,5s48,9,48,4v-9c0,0,7-7,3-19
	s-9-38-9-38s30-66,27-74s-39.6-32.7-39.6-32.7L422.8,228.9z"/>
<polygon class="st3" points="360.8,355.9 361.8,363.9 375.8,346.9 370.8,346.9 "/>
<path class="st1" d="M422.8,228.9l-29-7c0,0-6-5-6-11s9-15,15-21c1.1-1.1,2.5-1.7,4-1.7c5.9,0,13.1,7.7,13.1,7.7l-8,13.3l-0.4,0.6
	L422.8,228.9z"/>
<path class="st1" d="M445.2,217l17.1-5.6c0,0,5.5,21.5-0.5,22.5s-39-2-39-2L445.2,217z"/>
<path class="st4" d="M352.8,384.9l-13,74c0,0-5,9-3,13s3,4,0,6s-7,0-6,5c0.6,3,0.9,6,1,9l-28,96c0,0-18,8-5,13s26,9,29,4s0-11,0-11
	l46-110c0,0,7-10,7-16s23-49,23-49s1,43,2,46s-2,9-2,13s-2,4,0,6s2,25,2,25s-12,89-5,90s27-1,27-5s-3-5-3-5l13-76c0,0-1-5,1-9
	s2-4,2-6s-1-3,0-4c0.7-0.9,1-1.9,1-3c0,0-2-6-1-7s23-76,16-85S352.8,384.9,352.8,384.9z"/>
<path class="st4" d="M401.8,595.9l-7,16c0,0-16,18-4,22s16,3,16,3s5,1,5,3s40,17,43,4s-31-37-31-37v-12L401.8,595.9z"/>
<path id="foot" class="st4" d="M317.1,589l9.1,31.7c0,0,9.4,22.2-3.2,22.1s-16.1-2.3-16.1-2.3s-5.1-0.7-5.7,1.2s-43.3,3.3-42-10
	s37.7-26.1,37.7-26.1l0.9-11.8L317.1,589z"/>
<path class="st1" d="M356.8,233.9c0,0-6-1-10,7s-34,72-19,92s29,26,29,26l3,1l15-16l-5-7c0,0,0-7-4-8s-4,2-5-2s4-1-1-5s-1-6-1-6
	L356.8,233.9z"/>
<polygon class="st3" points="462.8,367.4 461.8,375.4 447.8,358.4 452.8,358.4 "/>
<path class="st1" d="M461.3,255.4c0,0,14-7,18,1s31.5,68,16.5,88s-29,26-29,26l-3,1l-15-16l5-7c0,0,0-7,4-8s4,2,5-2s-4-1,1-5
	s1-6,1-6L461.3,255.4z"/>
<polygon class="st2" points="366.3,273.4 355.3,317.4 368.3,333.4 362.3,313.4 "/>
<path class="st2" d="M420,196l-8,13.3c-5-1.7-5.4-13.4-5.2-21.1C412.8,188.2,420,196,420,196z"/>
<rect x="525" y="279.8" class="st5" width="396.8" height="202"/>
<rect x="596.9" y="347.8" class="st1" width="40.2" height="3.3"/>
<rect x="650.5" y="347.8" class="st1" width="40.2" height="3.3"/>
<rect x="728.4" y="378.8" class="st1" width="40.2" height="3.3"/>
<rect x="782.8" y="378.8" class="st1" width="40.2" height="3.3"/>
<rect x="704.9" y="347.8" class="st1" width="118" height="3.3"/>
<rect x="596.9" y="378.8" class="st1" width="118" height="3.3"/>
<rect x="596.9" y="409.8" class="st1" width="118" height="3.3"/>
<rect x="740.9" y="409.8" class="st1" width="82" height="3.3"/>
<polygon id="bracket_x5F_left" class="st1" points="585.7,362 571.5,347.8 585.7,333.7 588.5,336.5 577.2,347.8 588.5,359.1 "/>
<g id="bracket_x5F_right">
	<polygon class="st1" points="861,427.3 858.2,424.4 869.5,413.1 858.2,401.8 861,399 875.2,413.1 	"/>
	<rect x="829.5" y="410.7" transform="matrix(0.29 -0.957 0.957 0.29 204.1647 1100.6143)" class="st1" width="28.9" height="4"/>
</g>
<path class="st4" d="M417.5,165.1l-5.5-0.5c0,0,7-14.3,21.7-17.5l-5.3-3.3c0,0,8.7-6.8,20.7,1c6.3,4.1,13.6,8.9,19.1,15.1l5.3-1.5
	l-0.8,5.5l9.1,2.6l-8.2,1.4c1.2,2.5,2.1,5.2,2.5,8c0.4,2.8-0.2,5.6-1.8,7.9l0,0c0,0-9.8-10.9-10.3-12.9l1.4,4.9c0,0-6.2-3-7.1-6
	l-1.7,4.2l-17.9,5.2l1.4-5.2l-6.4,7.6l-3.5-1.3l-5.3,18.3C424.8,198.8,406.6,176.3,417.5,165.1z"/>
</svg>
