<?xml version="1.0" encoding="utf-8"?>
<!-- Generator: Adobe Illustrator 24.0.3, SVG Export Plug-In . SVG Version: 6.00 Build 0)  -->
<svg version="1.1" id="fc473563-838c-4b37-be93-34ef803eaab9"
	 xmlns="http://www.w3.org/2000/svg" xmlns:xlink="http://www.w3.org/1999/xlink" x="0px" y="0px" viewBox="0 0 1132 861.2"
	 style="enable-background:new 0 0 1132 861.2;" xml:space="preserve">
<style type="text/css">
	.st0{display:none;fill:#6DDBEE;}
	.st1{fill:#6DDBEE;}
	.st2{fill:#EA87A0;}
	.st3{fill:#D0CDE1;}
	.st4{fill:#E5E5E5;}
	.st5{fill:#FFFFFF;}
	.st6{opacity:0.2;enable-background:new    ;}
</style>
<title>location_search</title>
<path class="st0" d="M912.8,570.8c107,118.3-203.1,288.8-453.7,288.8S35.1,727.5,5.3,570.8C-66.9,190.8,620.4-50.7,459.1,282
	C223.9,766.8,828.5,477.6,912.8,570.8z"/>
<circle class="st1" cx="332" cy="193.5" r="9.1"/>
<circle class="st1" cx="208.4" cy="739.3" r="9.1"/>
<circle class="st1" cx="348.2" cy="327.1" r="4.1"/>
<circle class="st1" cx="135.5" cy="537.8" r="4.1"/>
<circle class="st1" cx="668.2" cy="689.7" r="4.1"/>
<circle class="st1" cx="122.4" cy="331.2" r="4.1"/>
<polygon class="st1" points="368.4,223.8 366.4,223.8 366.4,221.8 365.4,221.8 365.4,223.8 363.4,223.8 363.4,224.9 365.4,224.9 
	365.4,226.9 366.4,226.9 366.4,224.9 368.4,224.9 "/>
<polygon class="st1" points="213.5,257.3 211.5,257.3 211.5,255.2 210.5,255.2 210.5,257.3 208.4,257.3 208.4,258.3 210.5,258.3 
	210.5,260.3 211.5,260.3 211.5,258.3 213.5,258.3 "/>
<polygon class="st1" points="112.2,447.6 110.2,447.6 110.2,445.6 109.2,445.6 109.2,447.6 107.2,447.6 107.2,448.6 109.2,448.6 
	109.2,450.7 110.2,450.7 110.2,448.6 112.2,448.6 "/>
<circle class="st1" cx="396.8" cy="776.7" r="4.1"/>
<circle class="st1" cx="383.6" cy="570.2" r="4.1"/>
<circle class="st1" cx="862.6" cy="645.1" r="4.1"/>
<polygon class="st1" points="373.5,686.6 371.5,686.6 371.5,684.6 370.5,684.6 370.5,686.6 368.4,686.6 368.4,687.6 370.5,687.6 
	370.5,689.7 371.5,689.7 371.5,687.6 373.5,687.6 "/>
<polygon class="st1" points="569.9,758.5 567.9,758.5 567.9,756.5 566.9,756.5 566.9,758.5 564.9,758.5 564.9,759.5 566.9,759.5 
	566.9,761.6 567.9,761.6 567.9,759.5 569.9,759.5 "/>
<polygon class="st1" points="73.7,578.3 71.7,578.3 71.7,576.2 70.7,576.2 70.7,578.3 68.7,578.3 68.7,579.3 70.7,579.3 70.7,581.3 
	71.7,581.3 71.7,579.3 73.7,579.3 "/>
<polygon class="st1" points="355.3,432.4 353.2,432.4 353.2,430.4 352.2,430.4 352.2,432.4 350.2,432.4 350.2,433.5 352.2,433.5 
	352.2,435.5 353.2,435.5 353.2,433.5 355.3,433.5 "/>
<polygon class="st1" points="230.7,313 228.7,313 228.7,310.9 227.7,310.9 227.7,313 225.6,313 225.6,314 227.7,314 227.7,316 
	228.7,316 228.7,314 230.7,314 "/>
<polygon class="st1" points="313.7,512.4 311.7,512.4 311.7,510.4 310.7,510.4 310.7,512.4 308.7,512.4 308.7,513.5 310.7,513.5 
	310.7,515.5 311.7,515.5 311.7,513.5 313.7,513.5 "/>
<polygon class="st1" points="192.2,638 190.2,638 190.2,636 189.2,636 189.2,638 187.2,638 187.2,639 189.2,639 189.2,641.1 
	190.2,641.1 190.2,639 192.2,639 "/>
<ellipse class="st2" cx="233.7" cy="457.8" rx="59.7" ry="9.1"/>
<path class="st3" d="M239.8,460.8c-24.4,0-60.8-2.7-60.8-10.1s36.3-10.1,60.8-10.1s60.8,2.7,60.8,10.1S264.2,460.8,239.8,460.8z
	 M239.8,442.6c-15.9,0-30.9,0.9-42.1,2.7c-13.2,2-16.6,4.4-16.6,5.4s3.5,3.4,16.6,5.4c11.2,1.7,26.2,2.7,42.1,2.7s30.9-0.9,42.1-2.7
	c13.2-2,16.6-4.4,16.6-5.4s-3.5-3.4-16.6-5.4C270.7,443.5,255.7,442.6,239.8,442.6z"/>
<path class="st2" d="M239.8,302.8c-21.3,0-38.5,5.1-38.5,26.3s17.2,106.3,38.5,106.3s38.5-85.1,38.5-106.3S261.1,302.8,239.8,302.8z
	 M239.8,357.5c-8.9,0-16.2-7.3-16.2-16.2c0-8.9,7.3-16.2,16.2-16.2s16.2,7.3,16.2,16.2S248.8,357.5,239.8,357.5L239.8,357.5
	L239.8,357.5z"/>
<path class="st2" d="M959,534.5c-84.2-93.2-688.9,196-453.7-288.8C610.2,29.6,356.7,55.9,186.2,205
	C351.3,91.6,550.7,88.3,455.7,284.2C220.5,769.1,825.2,479.9,909.4,573c39.2,43.4,22.4,93.7-27,140.1
	C967.3,657.5,1009.4,590.3,959,534.5z"/>
<ellipse class="st2" cx="611.5" cy="551.9" rx="107.3" ry="14.2"/>
<g>
	<path class="st4" d="M669.8,380.5h-1.3v-34.8c0-11.1-9-20.1-20.1-20.1l0,0h-73.8c-11.1,0-20.1,9-20.1,20.1l0,0v191
		c0,11.1,9,20.1,20.1,20.1l0,0h73.8c11.1,0,20.1-9,20.1-20.1l0,0V405.3h1.3V380.5z"/>
	<path class="st2" d="M648.7,331.3h-9.6c1.5,3.7-0.3,7.8-3.9,9.3c-0.9,0.3-1.8,0.5-2.7,0.5h-42.3c-3.9,0-7.1-3.2-7.1-7.1
		c0-0.9,0.2-1.8,0.5-2.7h-9c-8.3,0-15,6.7-15,15V537c0,8.3,6.7,15,15,15h74.1c8.3,0,15-6.7,15-15V346.3
		C663.7,338,657,331.3,648.7,331.3z"/>
	<circle class="st1" cx="595.3" cy="399" r="21.3"/>
	<path class="st5" d="M650.5,429.9l-25.7-25.7c7-10.7,4.1-25.2-6.7-32.2s-25.2-4.1-32.2,6.7s-4.1,25.2,6.7,32.2
		c7.8,5.1,17.8,5.1,25.5,0l25.7,25.7L650.5,429.9z M593.6,403.1c-6.5-6.5-6.5-17,0-23.4s17-6.5,23.4,0s6.5,17,0,23.4l0,0
		C610.6,409.6,600.1,409.6,593.6,403.1z"/>
	<rect x="569.9" y="454.7" class="st5" width="83" height="10.1"/>
</g>
<g>
	<polygon class="st2" points="865.4,4.6 807.4,36.3 919.8,110.7 973.6,75.3 	"/>
	<polygon class="st2" points="1005,105.4 1128.6,185.1 1071.2,219.2 947.6,136.7 	"/>
	<path class="st3" d="M982.2,65.9c13.3,6.5,23,18.7,26.2,33.2c1.3,5.3-0.5,10.9-4.7,14.4L968,143.7c-5.3,4.4-12.7,5.2-18.7,1.8
		c-14.5-8.1-37.9-25-27.4-46.4c1.2-2.4,2.9-4.4,5.2-5.9l39.8-26.3C971.4,63.8,977.2,63.4,982.2,65.9z"/>
	
		<ellipse transform="matrix(0.8021 -0.5972 0.5972 0.8021 97.3874 568.2223)" class="st2" cx="906" cy="137.2" rx="39.9" ry="58.8"/>
	<path class="st6" d="M924.2,183.6c-7.2,5.4-24.5-5.2-40-24.1c-1.4-1.7-2.7-3.4-4.1-5.2c-1-1.3-1.9-2.6-2.8-4
		c-14.4-20.8-20-41.1-12.6-46.6c7.5-5.6,25.6,5.9,41.4,25.9c0.9,1.1,1.8,2.3,2.6,3.4c3,4,5.8,8.2,8.3,12.5
		C927.2,163.1,930.6,178.9,924.2,183.6z"/>
	<path class="st3" d="M917,145.6l-32.8,13.9l-23.5,10l-3.5-4.7l20-14.4l28.8-20.7c0.9,1.1,1.8,2.3,2.6,3.4
		C911.7,137.1,914.5,141.3,917,145.6z"/>
	<circle class="st3" cx="854.3" cy="170.4" r="7.1"/>
	<path class="st1" d="M852.2,245.7c-0.5-0.4-1-0.7-1.6-0.8c-38.4-7.9-62.6-30.1-73.9-67.6c-0.5-1.8-2.5-2.8-4.3-2.3
		s-2.8,2.5-2.3,4.3c11.9,39.6,38.5,64,79.1,72.4c1.8,0.4,3.7-0.8,4-2.7C853.5,247.7,853.1,246.5,852.2,245.7L852.2,245.7z"/>
	<path class="st1" d="M861.7,216c-0.5-0.4-1-0.7-1.6-0.8c-28.8-6-46.9-22.5-55.4-50.7c-0.5-1.8-2.5-2.8-4.3-2.3s-2.8,2.4-2.3,4.3
		c9.1,30.4,29.5,49,60.6,55.4c1.8,0.4,3.7-0.8,4-2.7C863,218,862.6,216.8,861.7,216L861.7,216z"/>
	<path class="st1" d="M838.3,276.2c-0.5-0.4-1-0.7-1.6-0.8c-38.3-7.9-80.3-46.3-91.6-83.8c-0.5-1.8-2.5-2.8-4.3-2.3
		s-2.8,2.4-2.3,4.3c11.9,39.6,56.2,80.1,96.7,88.5c1.8,0.4,3.7-0.8,4-2.7C839.6,278.2,839.2,277,838.3,276.2L838.3,276.2z"/>
</g>
</svg>
