<?xml version="1.0" encoding="utf-8"?>
<!-- Generator: Adobe Illustrator 24.0.3, SVG Export Plug-In . SVG Version: 6.00 Build 0)  -->
<svg version="1.1" id="a751cec9-7d0e-4c8a-a2d9-3a6c65a20454"
	 xmlns="http://www.w3.org/2000/svg" xmlns:xlink="http://www.w3.org/1999/xlink" x="0px" y="0px" viewBox="0 0 1137.3 1229.2"
	 style="enable-background:new 0 0 1137.3 1229.2;" xml:space="preserve">
<style type="text/css">
	.st0{fill:url(#SVGID_1_);}
	.st1{fill:url(#SVGID_2_);}
	.st2{fill:url(#SVGID_3_);}
	.st3{fill:url(#SVGID_4_);}
	.st4{fill:url(#SVGID_5_);}
	.st5{fill:url(#SVGID_6_);}
	.st6{fill:url(#SVGID_7_);}
	.st7{fill:url(#SVGID_8_);}
	.st8{fill:url(#SVGID_9_);}
	.st9{fill:url(#SVGID_10_);}
	.st10{fill:url(#SVGID_11_);}
	.st11{fill:url(#SVGID_12_);}
	.st12{fill:url(#SVGID_13_);}
	.st13{fill:url(#SVGID_14_);}
	.st14{fill:url(#SVGID_15_);}
	.st15{fill:url(#SVGID_16_);}
	.st16{fill:#FFFFFF;}
	.st17{fill:#EA87A0;}
	.st18{fill:#BDBDBD;}
	.st19{fill:#E0E0E0;}
	.st20{fill:#6DDBEE;}
	.st21{display:none;fill:#EA87A0;}
	.st22{fill:#2F2E41;}
	.st23{fill:#9F616A;}
	.st24{fill:#3F3D56;}
	.st25{fill:#CCCCCC;}
	.st26{fill:#F2F2F2;}
	.st27{fill:#E6E6E6;}
	.st28{opacity:0.1;enable-background:new    ;}
	.st29{fill:#D0CDE1;}
	.st30{opacity:0.2;enable-background:new    ;}
</style>
<g>
	
		<linearGradient id="SVGID_1_" gradientUnits="userSpaceOnUse" x1="502.25" y1="134.3058" x2="502.25" y2="58.1058" gradientTransform="matrix(1 0 0 1 0 359.2942)">
		<stop  offset="0" style="stop-color:#808080;stop-opacity:0.25"/>
		<stop  offset="0.54" style="stop-color:#808080;stop-opacity:0.12"/>
		<stop  offset="1" style="stop-color:#808080;stop-opacity:0.1"/>
	</linearGradient>
	<path class="st0" d="M248.9,417.4h506.7c6.1,0,11.1,5,11.1,11.1v54c0,6.1-5,11.1-11.1,11.1H248.9c-6.1,0-11.1-5-11.1-11.1v-54
		C237.8,422.4,242.8,417.4,248.9,417.4z"/>
	
		<linearGradient id="SVGID_2_" gradientUnits="userSpaceOnUse" x1="290.2" y1="123.9058" x2="290.2" y2="70.2058" gradientTransform="matrix(1 0 0 1 0 359.2942)">
		<stop  offset="0" style="stop-color:#B3B3B3;stop-opacity:0.25"/>
		<stop  offset="0.54" style="stop-color:#B3B3B3;stop-opacity:0.1"/>
		<stop  offset="1" style="stop-color:#B3B3B3;stop-opacity:5.000000e-02"/>
	</linearGradient>
	<path class="st1" d="M267.6,429.5h45.2c2.8,0,5,2.2,5,5v43.7c0,2.8-2.2,5-5,5h-45.2c-2.8,0-5-2.2-5-5v-43.7
		C262.6,431.7,264.9,429.5,267.6,429.5z"/>
	
		<linearGradient id="SVGID_3_" gradientUnits="userSpaceOnUse" x1="391.4" y1="83.3929" x2="391.4" y2="76.3929" gradientTransform="matrix(1 0 0 1 0 359.2942)">
		<stop  offset="0" style="stop-color:#B3B3B3;stop-opacity:0.25"/>
		<stop  offset="0.54" style="stop-color:#B3B3B3;stop-opacity:0.1"/>
		<stop  offset="1" style="stop-color:#B3B3B3;stop-opacity:5.000000e-02"/>
	</linearGradient>
	<rect x="338.2" y="435.7" class="st2" width="106.4" height="7"/>
	
		<linearGradient id="SVGID_4_" gradientUnits="userSpaceOnUse" x1="413.4" y1="99.731" x2="413.4" y2="92.731" gradientTransform="matrix(1 0 0 1 0 359.2942)">
		<stop  offset="0" style="stop-color:#B3B3B3;stop-opacity:0.25"/>
		<stop  offset="0.54" style="stop-color:#B3B3B3;stop-opacity:0.1"/>
		<stop  offset="1" style="stop-color:#B3B3B3;stop-opacity:5.000000e-02"/>
	</linearGradient>
	<rect x="338.2" y="452" class="st3" width="150.4" height="7"/>
	
		<linearGradient id="SVGID_5_" gradientUnits="userSpaceOnUse" x1="502.25" y1="251.1058" x2="502.25" y2="174.9058" gradientTransform="matrix(1 0 0 1 0 359.2942)">
		<stop  offset="0" style="stop-color:#808080;stop-opacity:0.25"/>
		<stop  offset="0.54" style="stop-color:#808080;stop-opacity:0.12"/>
		<stop  offset="1" style="stop-color:#808080;stop-opacity:0.1"/>
	</linearGradient>
	<path class="st4" d="M248.9,534.2h506.7c6.1,0,11.1,5,11.1,11.1v54c0,6.1-5,11.1-11.1,11.1H248.9c-6.1,0-11.1-5-11.1-11.1v-54
		C237.8,539.2,242.8,534.2,248.9,534.2z"/>
	
		<linearGradient id="SVGID_6_" gradientUnits="userSpaceOnUse" x1="290.2" y1="240.6058" x2="290.2" y2="186.9058" gradientTransform="matrix(1 0 0 1 0 359.2942)">
		<stop  offset="0" style="stop-color:#B3B3B3;stop-opacity:0.25"/>
		<stop  offset="0.54" style="stop-color:#B3B3B3;stop-opacity:0.1"/>
		<stop  offset="1" style="stop-color:#B3B3B3;stop-opacity:5.000000e-02"/>
	</linearGradient>
	<path class="st5" d="M267.6,546.2h45.2c2.8,0,5,2.2,5,5v43.7c0,2.8-2.2,5-5,5h-45.2c-2.8,0-5-2.2-5-5v-43.7
		C262.6,548.5,264.9,546.2,267.6,546.2z"/>
	
		<linearGradient id="SVGID_7_" gradientUnits="userSpaceOnUse" x1="391.4" y1="200.1815" x2="391.4" y2="193.1815" gradientTransform="matrix(1 0 0 1 0 359.2942)">
		<stop  offset="0" style="stop-color:#B3B3B3;stop-opacity:0.25"/>
		<stop  offset="0.54" style="stop-color:#B3B3B3;stop-opacity:0.1"/>
		<stop  offset="1" style="stop-color:#B3B3B3;stop-opacity:5.000000e-02"/>
	</linearGradient>
	<rect x="338.2" y="552.5" class="st6" width="106.4" height="7"/>
	
		<linearGradient id="SVGID_8_" gradientUnits="userSpaceOnUse" x1="413.4" y1="216.5195" x2="413.4" y2="209.5195" gradientTransform="matrix(1 0 0 1 0 359.2942)">
		<stop  offset="0" style="stop-color:#B3B3B3;stop-opacity:0.25"/>
		<stop  offset="0.54" style="stop-color:#B3B3B3;stop-opacity:0.1"/>
		<stop  offset="1" style="stop-color:#B3B3B3;stop-opacity:5.000000e-02"/>
	</linearGradient>
	<rect x="338.2" y="568.8" class="st7" width="150.4" height="7"/>
	
		<linearGradient id="SVGID_9_" gradientUnits="userSpaceOnUse" x1="502.25" y1="367.2057" x2="502.25" y2="291.0058" gradientTransform="matrix(1 0 0 1 0 359.2942)">
		<stop  offset="0" style="stop-color:#808080;stop-opacity:0.25"/>
		<stop  offset="0.54" style="stop-color:#808080;stop-opacity:0.12"/>
		<stop  offset="1" style="stop-color:#808080;stop-opacity:0.1"/>
	</linearGradient>
	<path class="st8" d="M248.9,650.3h506.7c6.1,0,11.1,5,11.1,11.1v54c0,6.1-5,11.1-11.1,11.1H248.9c-6.1,0-11.1-5-11.1-11.1v-54
		C237.8,655.3,242.8,650.3,248.9,650.3z"/>
	
		<linearGradient id="SVGID_10_" gradientUnits="userSpaceOnUse" x1="290.2" y1="356.7058" x2="290.2" y2="303.0058" gradientTransform="matrix(1 0 0 1 0 359.2942)">
		<stop  offset="0" style="stop-color:#B3B3B3;stop-opacity:0.25"/>
		<stop  offset="0.54" style="stop-color:#B3B3B3;stop-opacity:0.1"/>
		<stop  offset="1" style="stop-color:#B3B3B3;stop-opacity:5.000000e-02"/>
	</linearGradient>
	<path class="st9" d="M267.6,662.3h45.2c2.8,0,5,2.2,5,5V711c0,2.8-2.2,5-5,5h-45.2c-2.8,0-5-2.2-5-5v-43.7
		C262.6,664.6,264.9,662.3,267.6,662.3z"/>
	
		<linearGradient id="SVGID_11_" gradientUnits="userSpaceOnUse" x1="391.4" y1="316.2787" x2="391.4" y2="309.2787" gradientTransform="matrix(1 0 0 1 0 359.2942)">
		<stop  offset="0" style="stop-color:#B3B3B3;stop-opacity:0.25"/>
		<stop  offset="0.54" style="stop-color:#B3B3B3;stop-opacity:0.1"/>
		<stop  offset="1" style="stop-color:#B3B3B3;stop-opacity:5.000000e-02"/>
	</linearGradient>
	<rect x="338.2" y="668.6" class="st10" width="106.4" height="7"/>
	
		<linearGradient id="SVGID_12_" gradientUnits="userSpaceOnUse" x1="413.4" y1="332.6168" x2="413.4" y2="325.6168" gradientTransform="matrix(1 0 0 1 0 359.2942)">
		<stop  offset="0" style="stop-color:#B3B3B3;stop-opacity:0.25"/>
		<stop  offset="0.54" style="stop-color:#B3B3B3;stop-opacity:0.1"/>
		<stop  offset="1" style="stop-color:#B3B3B3;stop-opacity:5.000000e-02"/>
	</linearGradient>
	<rect x="338.2" y="684.9" class="st11" width="150.4" height="7"/>
	
		<linearGradient id="SVGID_13_" gradientUnits="userSpaceOnUse" x1="502.25" y1="484.0057" x2="502.25" y2="407.8058" gradientTransform="matrix(1 0 0 1 0 359.2942)">
		<stop  offset="0" style="stop-color:#808080;stop-opacity:0.25"/>
		<stop  offset="0.54" style="stop-color:#808080;stop-opacity:0.12"/>
		<stop  offset="1" style="stop-color:#808080;stop-opacity:0.1"/>
	</linearGradient>
	<path class="st12" d="M248.9,767.1h506.7c6.1,0,11.1,5,11.1,11.1v54c0,6.1-5,11.1-11.1,11.1H248.9c-6.1,0-11.1-5-11.1-11.1v-54
		C237.8,772.1,242.8,767.1,248.9,767.1z"/>
	
		<linearGradient id="SVGID_14_" gradientUnits="userSpaceOnUse" x1="290.2" y1="473.5058" x2="290.2" y2="419.8058" gradientTransform="matrix(1 0 0 1 0 359.2942)">
		<stop  offset="0" style="stop-color:#B3B3B3;stop-opacity:0.25"/>
		<stop  offset="0.54" style="stop-color:#B3B3B3;stop-opacity:0.1"/>
		<stop  offset="1" style="stop-color:#B3B3B3;stop-opacity:5.000000e-02"/>
	</linearGradient>
	<path class="st13" d="M267.6,779.1h45.2c2.8,0,5,2.2,5,5v43.7c0,2.8-2.2,5-5,5h-45.2c-2.8,0-5-2.2-5-5v-43.7
		C262.6,781.4,264.9,779.1,267.6,779.1z"/>
	
		<linearGradient id="SVGID_15_" gradientUnits="userSpaceOnUse" x1="391.4" y1="433.0613" x2="391.4" y2="426.0613" gradientTransform="matrix(1 0 0 1 0 359.2942)">
		<stop  offset="0" style="stop-color:#B3B3B3;stop-opacity:0.25"/>
		<stop  offset="0.54" style="stop-color:#B3B3B3;stop-opacity:0.1"/>
		<stop  offset="1" style="stop-color:#B3B3B3;stop-opacity:5.000000e-02"/>
	</linearGradient>
	<rect x="338.2" y="785.4" class="st14" width="106.4" height="7"/>
	
		<linearGradient id="SVGID_16_" gradientUnits="userSpaceOnUse" x1="413.4" y1="449.4058" x2="413.4" y2="442.4058" gradientTransform="matrix(1 0 0 1 0 359.2942)">
		<stop  offset="0" style="stop-color:#B3B3B3;stop-opacity:0.25"/>
		<stop  offset="0.54" style="stop-color:#B3B3B3;stop-opacity:0.1"/>
		<stop  offset="1" style="stop-color:#B3B3B3;stop-opacity:5.000000e-02"/>
	</linearGradient>
	<rect x="338.2" y="801.7" class="st15" width="150.4" height="7"/>
	<path class="st16" d="M253.7,420.1h497.1c6.1,0,11.1,5,11.1,11.1v45.1c0,6.1-5,11.1-11.1,11.1H253.7c-6.1,0-11.1-5-11.1-11.1v-45.1
		C242.6,425.1,247.6,420.1,253.7,420.1z"/>
	<path class="st17" d="M272,430.8h44.2c2.8,0,5,2.2,5,5v37.4c0,2.8-2.2,5-5,5H272c-2.8,0-5-2.2-5-5v-37.4
		C267,433,269.2,430.8,272,430.8z"/>
	<rect x="341.2" y="436.3" class="st18" width="104.4" height="6.2"/>
	<rect x="341.2" y="450.7" class="st19" width="147.7" height="6.2"/>
	<path class="st16" d="M253.7,536.9h497.1c6.1,0,11.1,5,11.1,11.1v45.1c0,6.1-5,11.1-11.1,11.1H253.7c-6.1,0-11.1-5-11.1-11.1V548
		C242.6,541.9,247.6,536.9,253.7,536.9z"/>
	<path class="st17" d="M272,547.6h44.2c2.8,0,5,2.2,5,5V590c0,2.8-2.2,5-5,5H272c-2.8,0-5-2.2-5-5v-37.4
		C267,549.8,269.2,547.6,272,547.6z"/>
	<rect x="341.2" y="553.1" class="st18" width="104.4" height="6.2"/>
	<rect x="341.2" y="567.5" class="st20" width="147.7" height="6.2"/>
	<path class="st16" d="M253.7,653.7h497.1c6.1,0,11.1,5,11.1,11.1v45.1c0,6.1-5,11.1-11.1,11.1H253.7c-6.1,0-11.1-5-11.1-11.1v-45.1
		C242.6,658.7,247.6,653.7,253.7,653.7z"/>
	<path class="st17" d="M272,664.4h44.2c2.8,0,5,2.2,5,5v37.4c0,2.8-2.2,5-5,5H272c-2.8,0-5-2.2-5-5v-37.4
		C267,666.6,269.2,664.4,272,664.4z"/>
	<rect x="341.2" y="669.9" class="st18" width="104.4" height="6.2"/>
	<rect x="341.2" y="684.3" class="st19" width="147.7" height="6.2"/>
	<path class="st16" d="M253.7,770.5h497.1c6.1,0,11.1,5,11.1,11.1v45.1c0,6.1-5,11.1-11.1,11.1H253.7c-6.1,0-11.1-5-11.1-11.1v-45.1
		C242.6,775.5,247.6,770.5,253.7,770.5z"/>
	<path class="st17" d="M272,781.2h44.2c2.8,0,5,2.2,5,5v37.4c0,2.8-2.2,5-5,5H272c-2.8,0-5-2.2-5-5v-37.4
		C267,783.4,269.2,781.2,272,781.2z"/>
	<rect x="341.2" y="786.7" class="st18" width="104.4" height="6.2"/>
	<rect x="341.2" y="801.1" class="st20" width="147.7" height="6.2"/>
</g>
<title>newspaper</title>
<circle class="st17" cx="744.3" cy="957.4" r="240.7"/>
<path class="st21" d="M987.3,1014.8h-485l0.2-51.4C503,833.3,606.9,726.1,737,723.8c1.4,0,2.8,0,4.2,0l0,0
	c29.3,0,58.3,5.2,85.8,15.4c92.1,34.3,153.8,121.4,158,219.5L987.3,1014.8z"/>
<g>
	<polygon class="st22" points="731.3,742.9 749.6,756.4 768.1,913.8 811.6,913.8 796.5,734.6 736.3,711.1 	"/>
	<path class="st22" d="M654.2,692.7c0,0-5,57,15.1,58.6c20.1,1.6,97.1-16.7,97.1-16.7l36.8,130.6l55.3-28.4
		c0,0-33.5-147.4-53.6-155.8c-20.1-8.4-87.1-25.1-87.1-25.1l-48.5,8.4L654.2,692.7z"/>
	<path class="st22" d="M774.8,910.4c0,0-10.1,38.5-3.4,41.9c4.1,2,7.9,4.2,11.7,6.7v-6.7c0,0,8.4,8.4,8.4,15.1s45.3,8.4,45.3,0
		s-1.6-18.4-10.1-23.4c-8.4-5-18.4-33.5-18.4-33.5L774.8,910.4z"/>
	<polygon class="st22" points="823.3,841.7 826.7,873.6 838.4,893.7 866.9,861.9 845.1,826.7 	"/>
	<path class="st22" d="M850.1,873.5c0,0,6.2-21.1,12.3-18.9s29.6,24,29.6,24l16.7,10.1c0,0,33.5,3.4,23.4,13.4s-46.9,23.4-63.6,16.7
		c-16.7-6.7-20.1-8.4-20.1-8.4l-5,3.4l-20.1-5l3.4-35.2C826.7,873.5,831.7,888.6,850.1,873.5z"/>
	<circle class="st23" cx="711.1" cy="444.9" r="38.5"/>
	<path class="st23" d="M686.9,467.4c0,0,3.4,35.2-6.7,35.2c-10.1,0,1.6,43.5,28.4,43.5c26.8,0,36.8-51.9,36.8-51.9
		s-18.4-6.7-15.1-28.4S686.9,467.4,686.9,467.4z"/>
	<path class="st24" d="M684.2,499.9l-14.1,6L632,522.2c-3.2,1.4-5.1,4.6-4.7,8l14.4,128.2c0,0-15.1,31.8,8.4,33.5l3.4,11.7
		l26.8-31.8l100.5-3.4l1.6-162.5l-45.9-18.2C736.4,487.8,730.1,522.4,684.2,499.9z"/>
	<path class="st24" d="M637.5,526.9l-6.2-1.8c-2.7-0.8-5.5,0.8-6.3,3.5c-0.1,0.2-0.1,0.4-0.2,0.6l-16.5,103
		c-1.3,7.7-0.1,15.4,3.5,22.3c5.1,9.6,15.6,18.4,37.2,7.9l15.1-108.9L637.5,526.9z"/>
	<path class="st24" d="M763.1,503.5l20.1,3.4l55.3,77.1l5,13.4l31.8-10.1c0,0-1.6,15.1,15.1,13.4c0,0-20.1,55.3-62,38.5
		c-41.9-16.7-55.3-67-55.3-67L763.1,503.5z"/>
	<polygon class="st25" points="786.5,537 711.1,506.8 707.8,516.8 743,547 	"/>
	<path class="st22" d="M687.9,447.3c1.5-0.3,1.6-2.2,1.6-3.7c0.3-7.8,5-15.9,12.6-18.3c2.9-0.8,5.9-0.9,8.9-0.5
		c4.2,0.6,8.3,1.9,12.1,4.1c2,1.1,3.9,2.4,6.1,2.8c1.5,0.3,7.8,2.1,9.3,2.3c3.2,0.6,6.2,3.4,9.3,2.4c2.9-1,3.6-4.8,3.7-8
		c0.2-7.2-5.3-17-10-22.3c-3.6-4.1-9.1-5.9-14.4-6.8c-6.2-1-12.5-1.4-18.8-1.1c-8.5,0.2-17.3,0.8-25,4.5c-7.7,3.7-14.1,11-14.5,19.6
		c-0.1,1.8,0.1,3.5,0,5.3c-0.3,4.3-2.7,8.2-3.7,12.4c-1.6,6.2-0.4,12.8,3.2,18.2c2.8,4.2,14.2,8,14.1,13.1c2.1-2.2-2.8-4.3-0.8-6.5
		c1.9-1.5,2.5-4.1,1.6-6.2l-2.2-8.5c-0.4-1.6-0.8-3.3-0.2-4.7C683,439.3,685.6,448,687.9,447.3z"/>
	<polygon class="st26" points="707.8,516.8 675.9,640.8 799.9,684.3 871.9,624.1 917.1,488.4 843.4,542 	"/>
	
		<rect x="773.2" y="484.7" transform="matrix(0.2552 -0.9669 0.9669 0.2552 47.5057 1155.8405)" class="st27" width="1.6" height="124.7"/>
	
		<rect x="769.8" y="493.1" transform="matrix(0.2552 -0.9669 0.9669 0.2552 36.895 1158.8309)" class="st27" width="1.6" height="124.7"/>
	
		<rect x="768.1" y="501.4" transform="matrix(0.2552 -0.9669 0.9669 0.2552 27.587 1163.4174)" class="st27" width="1.6" height="124.7"/>
	
		<rect x="766.5" y="509.8" transform="matrix(0.2552 -0.9669 0.9669 0.2552 18.2792 1168.0038)" class="st27" width="1.6" height="124.7"/>
	
		<rect x="764.8" y="518.2" transform="matrix(0.2552 -0.9669 0.9669 0.2552 8.8743 1172.6311)" class="st27" width="1.6" height="124.7"/>
	
		<rect x="763.1" y="526.5" transform="matrix(0.2552 -0.9669 0.9669 0.2552 -0.4336 1177.2177)" class="st27" width="1.6" height="124.7"/>
	
		<rect x="761.5" y="535" transform="matrix(0.2552 -0.9669 0.9669 0.2552 -9.7977 1181.9418)" class="st27" width="1.6" height="124.7"/>
	
		<rect x="759.8" y="543.3" transform="matrix(0.2552 -0.9669 0.9669 0.2552 -19.1056 1186.5282)" class="st27" width="1.6" height="124.7"/>
	
		<rect x="758.1" y="551.7" transform="matrix(0.2552 -0.9669 0.9669 0.2552 -28.5105 1191.1555)" class="st27" width="1.6" height="124.7"/>
	<path class="st23" d="M656.7,608c0,0,37.7-22.5,54.4-7.4c16.7,15.1-48.5,36.8-48.5,36.8L656.7,608z"/>
	<path class="st24" d="M615.7,619l48.5-18.4c0,0-8.4,31.8,8.4,33.5l-23.4,28.4C649.2,662.6,602.3,662.6,615.7,619z"/>
	<polygon class="st27" points="743.5,618.3 807.9,640 792.7,673.3 728.3,651.6 	"/>
	<polygon class="st25" points="857.6,547.9 906.3,511 892.8,556.2 842.6,593 	"/>
	
		<rect x="828" y="590.5" transform="matrix(0.7967 -0.6044 0.6044 0.7967 -182.8792 639.0793)" class="st27" width="60.9" height="1.6"/>
	
		<rect x="824.7" y="608.9" transform="matrix(0.7967 -0.6044 0.6044 0.7967 -194.6639 640.8405)" class="st27" width="60.9" height="1.6"/>
	<path class="st23" d="M885.3,602.3c0,0,41.9-25.1,15.1-35.2c-26.8-10.1-26.8,28.4-26.8,28.4S871.9,604,885.3,602.3z"/>
	<polygon class="st28" points="640,546.1 638.3,611.5 664.2,604.1 643.4,604.8 	"/>
</g>
<rect x="964.3" y="763.8" class="st26" width="30" height="30"/>
<rect x="844.3" y="423.8" class="st26" width="30" height="30"/>
<circle class="st26" cx="497.3" cy="712.8" r="15"/>
<g>
	<polygon class="st17" points="369.3,82.6 404.7,122.6 298.7,148.4 267.6,106.6 	"/>
	<polygon class="st17" points="235.5,120.9 119.6,147.6 153.8,189.3 270.5,160.5 	"/>
	<path class="st29" d="M263.6,97.1c-11.9,1.3-22.6,7.9-29.1,18.1c-2.4,3.7-2.6,8.4-0.4,12.3l18.9,32.8c2.8,4.8,8.3,7.4,13.7,6.5
		c13.3-2.1,35.7-8.6,33.6-27.7c-0.2-2.1-1-4.2-2.3-5.9l-23.1-31C272.4,98.5,268.1,96.6,263.6,97.1z"/>
	
		<ellipse transform="matrix(0.8341 -0.5516 0.5516 0.8341 -44.9278 195.1772)" class="st17" cx="302" cy="172.3" rx="47.5" ry="32.3"/>
	<path class="st30" d="M275.4,202.6c4,6.1,20.1,2.7,37-7.4c1.5-0.9,3-1.8,4.5-2.8c1.1-0.7,2.2-1.5,3.2-2.2
		c16.6-11.8,26.5-25.8,22.4-32c-4.2-6.3-21.1-2.5-38.6,8.3c-1,0.6-2,1.2-2.9,1.9c-3.4,2.2-6.6,4.7-9.8,7.3
		C278.7,186.2,271.9,197.2,275.4,202.6z"/>
	<path class="st29" d="M291.3,175.6l21.1,19.6l15.1,14l3.9-2.6l-11.3-16.5L304,166.5c-1,0.6-2,1.2-2.9,1.9
		C297.7,170.6,294.4,173,291.3,175.6z"/>
	<circle class="st29" cx="332.2" cy="211.7" r="5.8"/>
	<path class="st20" d="M313.1,269.6c0.5-0.2,1-0.3,1.5-0.2c31.4,4.5,55.9-5.7,74.8-31.1c0.9-1.2,2.6-1.5,3.9-0.6
		c1.2,0.9,1.5,2.6,0.6,3.9c-20,26.9-46.9,38.1-80,33.3c-1.5-0.2-2.6-1.6-2.3-3.1C311.5,270.8,312.2,269.9,313.1,269.6L313.1,269.6z"
		/>
	<path class="st20" d="M314,244.3c0.5-0.2,1-0.3,1.5-0.2c23.5,3.4,41.9-4.3,56.1-23.3c0.9-1.2,2.6-1.5,3.9-0.6
		c1.2,0.9,1.5,2.6,0.6,3.9c-15.3,20.6-35.9,29.2-61.3,25.5c-1.5-0.2-2.6-1.6-2.3-3.1C312.5,245.5,313.1,244.7,314,244.3L314,244.3z"
		/>
	<path class="st20" d="M315.3,296.6c0.5-0.2,1-0.3,1.5-0.2c31.3,4.5,73.8-13.2,92.6-38.6c0.9-1.2,2.6-1.5,3.9-0.6
		c1.2,0.9,1.5,2.6,0.6,3.9c-19.9,26.8-64.8,45.5-97.9,40.7c-1.5-0.2-2.6-1.6-2.3-3.1C313.8,297.8,314.4,296.9,315.3,296.6
		L315.3,296.6z"/>
</g>
</svg>
