<?xml version="1.0" encoding="utf-8"?>
<!-- Generator: Adobe Illustrator 24.0.3, SVG Export Plug-In . SVG Version: 6.00 Build 0)  -->
<svg version="1.1" id="_x39_a5c15f4-7944-40bc-b8da-d63b7d478a28"
	 xmlns="http://www.w3.org/2000/svg" xmlns:xlink="http://www.w3.org/1999/xlink" x="0px" y="0px" viewBox="0 0 1407.6 1762.1"
	 style="enable-background:new 0 0 1407.6 1762.1;" xml:space="preserve">
<style type="text/css">
	.st0{opacity:0.5;}
	.st1{fill:url(#SVGID_1_);}
	.st2{fill:#F2F2F2;}
	.st3{fill:#E0E0E0;}
	.st4{opacity:0.7;fill:#EA87A0;enable-background:new    ;}
	.st5{fill:url(#SVGID_2_);}
	.st6{fill:#F5F5F5;}
	.st7{fill:url(#SVGID_3_);}
	.st8{fill:#FFFFFF;}
	.st9{clip-path:url(#SVGID_5_);}
	.st10{opacity:0.4;fill:#EA87A0;enable-background:new    ;}
	.st11{fill:url(#SVGID_6_);}
	.st12{fill:url(#SVGID_7_);}
	.st13{clip-path:url(#SVGID_9_);}
	.st14{opacity:0.4;fill:#BDBDBD;enable-background:new    ;}
	.st15{fill:url(#SVGID_10_);}
	.st16{fill:#6DDBEE;}
	.st17{fill:url(#SVGID_11_);}
	.st18{fill:#EA87A0;}
	.st19{fill:url(#SVGID_12_);}
	.st20{fill:url(#SVGID_13_);}
	.st21{fill:url(#SVGID_14_);}
	.st22{fill:#D0CDE1;}
	.st23{opacity:0.2;enable-background:new    ;}
</style>
<title>file searching</title>
<g class="st0">
	
		<linearGradient id="SVGID_1_" gradientUnits="userSpaceOnUse" x1="635.663" y1="908.2321" x2="635.663" y2="305.6321" gradientTransform="matrix(1 0 0 1 0 421.7689)">
		<stop  offset="0" style="stop-color:#808080;stop-opacity:0.25"/>
		<stop  offset="0.54" style="stop-color:#808080;stop-opacity:0.12"/>
		<stop  offset="1" style="stop-color:#808080;stop-opacity:0.1"/>
	</linearGradient>
	<rect x="411.5" y="727.4" class="st1" width="448.4" height="602.6"/>
</g>
<rect x="417.3" y="735.6" class="st2" width="434.4" height="581.6"/>
<rect x="451.2" y="760.1" class="st3" width="149.5" height="4.7"/>
<rect x="451.2" y="781.1" class="st4" width="149.5" height="4.7"/>
<rect x="622.9" y="760.1" class="st3" width="149.5" height="4.7"/>
<rect x="646.2" y="893.2" class="st3" width="149.5" height="4.7"/>
<rect x="649.7" y="906.1" class="st3" width="149.5" height="4.7"/>
<rect x="656.7" y="918.9" class="st3" width="149.5" height="4.7"/>
<rect x="646.2" y="1099.9" class="st3" width="149.5" height="4.7"/>
<rect x="649.7" y="1112.8" class="st3" width="149.5" height="4.7"/>
<rect x="656.7" y="1125.6" class="st3" width="149.5" height="4.7"/>
<g class="st0">
	
		<linearGradient id="SVGID_2_" gradientUnits="userSpaceOnUse" x1="531.763" y1="584.7321" x2="531.763" y2="423.5321" gradientTransform="matrix(1 0 0 1 0 421.7689)">
		<stop  offset="0" style="stop-color:#808080;stop-opacity:0.25"/>
		<stop  offset="0.54" style="stop-color:#808080;stop-opacity:0.12"/>
		<stop  offset="1" style="stop-color:#808080;stop-opacity:0.1"/>
	</linearGradient>
	<rect x="452.4" y="845.3" class="st5" width="158.8" height="161.2"/>
</g>
<rect x="453.4" y="848.9" class="st6" width="156.3" height="154.2"/>
<g class="st0">
	
		<linearGradient id="SVGID_3_" gradientUnits="userSpaceOnUse" x1="531.763" y1="536.8322" x2="531.763" y2="436.4321" gradientTransform="matrix(1 0 0 1 0 421.7689)">
		<stop  offset="0" style="stop-color:#808080;stop-opacity:0.25"/>
		<stop  offset="0.54" style="stop-color:#808080;stop-opacity:0.12"/>
		<stop  offset="1" style="stop-color:#808080;stop-opacity:0.1"/>
	</linearGradient>
	<rect x="458.9" y="858.2" class="st7" width="145.8" height="100.4"/>
</g>
<rect id="e1f34465-d008-41db-868b-e00503fb87b3" x="459.9" y="859.4" class="st8" width="143.8" height="96.9"/>
<g>
	<g>
		<defs>
			<rect id="SVGID_4_" x="459.9" y="859.4" width="143.8" height="96.9"/>
		</defs>
		<clipPath id="SVGID_5_">
			<use xlink:href="#SVGID_4_"  style="overflow:visible;"/>
		</clipPath>
		<g class="st9">
			<polygon class="st10" points="447.7,952.8 483.9,896.7 499.1,921.3 531.8,887.4 559.8,921.3 584.3,871 647.4,971.5 443,964.5 			
				"/>
			<circle class="st10" cx="475.7" cy="873.4" r="10.5"/>
		</g>
	</g>
</g>
<g class="st0">
	
		<linearGradient id="SVGID_6_" gradientUnits="userSpaceOnUse" x1="531.763" y1="791.5321" x2="531.763" y2="630.3321" gradientTransform="matrix(1 0 0 1 0 421.7689)">
		<stop  offset="0" style="stop-color:#808080;stop-opacity:0.25"/>
		<stop  offset="0.54" style="stop-color:#808080;stop-opacity:0.12"/>
		<stop  offset="1" style="stop-color:#808080;stop-opacity:0.1"/>
	</linearGradient>
	<rect x="452.4" y="1052.1" class="st11" width="158.8" height="161.2"/>
</g>
<rect x="453.4" y="1055.6" class="st6" width="156.3" height="154.2"/>
<g class="st0">
	
		<linearGradient id="SVGID_7_" gradientUnits="userSpaceOnUse" x1="531.763" y1="743.5321" x2="531.763" y2="643.1321" gradientTransform="matrix(1 0 0 1 0 421.7689)">
		<stop  offset="0" style="stop-color:#808080;stop-opacity:0.25"/>
		<stop  offset="0.54" style="stop-color:#808080;stop-opacity:0.12"/>
		<stop  offset="1" style="stop-color:#808080;stop-opacity:0.1"/>
	</linearGradient>
	<rect x="458.9" y="1064.9" class="st12" width="145.8" height="100.4"/>
</g>
<rect id="c95ac4f6-be4d-44a3-92c2-5c8066e2b531" x="459.9" y="1066.1" class="st8" width="143.8" height="96.9"/>
<g>
	<g>
		<defs>
			<rect id="SVGID_8_" x="459.9" y="1066.1" width="143.8" height="96.9"/>
		</defs>
		<clipPath id="SVGID_9_">
			<use xlink:href="#SVGID_8_"  style="overflow:visible;"/>
		</clipPath>
		<g class="st13">
			<polygon class="st14" points="447.7,1159.5 483.9,1103.4 499.1,1128 531.8,1094.1 559.8,1128 584.3,1077.7 647.4,1178.2 
				443,1171.2 			"/>
			<circle class="st14" cx="475.7" cy="1080.1" r="10.5"/>
		</g>
	</g>
</g>
<g class="st0">
	
		<linearGradient id="SVGID_10_" gradientUnits="userSpaceOnUse" x1="949.5159" y1="735.91" x2="949.5159" y2="133.231" gradientTransform="matrix(0.9808 0.1949 -0.1949 0.9808 -90.6447 425.567)">
		<stop  offset="0" style="stop-color:#808080;stop-opacity:0.25"/>
		<stop  offset="0.54" style="stop-color:#808080;stop-opacity:0.12"/>
		<stop  offset="1" style="stop-color:#808080;stop-opacity:0.1"/>
	</linearGradient>
	<polygon class="st15" points="477.3,1288.7 594.8,697.6 1034.6,785 917.2,1376.1 	"/>
</g>
<rect x="464.4" y="817.1" transform="matrix(0.1949 -0.9808 0.9808 0.1949 -406.4642 1573.4062)" class="st8" width="581.6" height="434.4"/>
<rect x="772.9" y="617.4" transform="matrix(0.1949 -0.9808 0.9808 0.1949 -132.5513 1381.5854)" class="st3" width="4.7" height="308.3"/>
<rect x="686.9" y="1050.4" transform="matrix(0.1949 -0.9808 0.9808 0.1949 -626.5489 1645.8236)" class="st3" width="4.7" height="308.3"/>
<rect x="647.3" y="1105" transform="matrix(0.1949 -0.9808 0.9808 0.1949 -677.5321 1622.723)" class="st3" width="4.7" height="238.2"/>
<rect x="568.8" y="1191.5" transform="matrix(0.1949 -0.9808 0.9808 0.1949 -752.2939 1555.1071)" class="st4" width="4.7" height="88.7"/>
<rect x="692.2" y="705.8" transform="matrix(0.1949 -0.9808 0.9808 0.1949 -208.7317 1311.5796)" class="st4" width="4.7" height="154.2"/>
<rect x="747.6" y="682.4" transform="matrix(0.1949 -0.9808 0.9808 0.1949 -201.7492 1396.8463)" class="st3" width="4.7" height="277.9"/>
<rect x="639.3" y="793.3" transform="matrix(0.1949 -0.9808 0.9808 0.1949 -294.7162 1295.2267)" class="st16" width="4.7" height="67.7"/>
<rect x="752" y="722.8" transform="matrix(0.1949 -0.9808 0.9808 0.1949 -252.8346 1445.9421)" class="st3" width="4.7" height="308.3"/>
<g class="st0">
	
		<linearGradient id="SVGID_11_" gradientUnits="userSpaceOnUse" x1="948.9402" y1="538.5522" x2="948.9402" y2="379.6465" gradientTransform="matrix(0.9808 0.1949 -0.1949 0.9808 -90.6484 425.5641)">
		<stop  offset="0" style="stop-color:#808080;stop-opacity:0.25"/>
		<stop  offset="0.54" style="stop-color:#808080;stop-opacity:0.12"/>
		<stop  offset="1" style="stop-color:#808080;stop-opacity:0.1"/>
	</linearGradient>
	<polygon class="st17" points="599.4,1111.7 630.4,955.9 901.8,1009.9 870.9,1165.7 	"/>
</g>
<rect x="673.1" y="923.6" transform="matrix(0.1949 -0.9808 0.9808 0.1949 -435.4936 1589.9258)" class="st8" width="155.3" height="273.3"/>
<rect x="746.8" y="749.2" transform="matrix(0.1949 -0.9808 0.9808 0.1949 -282.8296 1462.054)" class="st3" width="4.7" height="308.3"/>
<rect x="604.7" y="1025.5" transform="matrix(0.1949 -0.9808 0.9808 0.1949 -489.9895 1487.9392)" class="st18" width="113.3" height="33.9"/>
<rect x="679.4" y="1055.7" transform="matrix(0.1949 -0.9808 0.9808 0.1949 -474.5597 1567.1184)" class="st16" width="75.9" height="33.9"/>
<rect x="753" y="1084.7" transform="matrix(0.1949 -0.9808 0.9808 0.1949 -457.7739 1645.5127)" class="st16" width="40.9" height="33.9"/>
<rect x="795.6" y="1075.9" transform="matrix(0.1949 -0.9808 0.9808 0.1949 -397.9939 1700.8953)" class="st18" width="82.9" height="33.9"/>
<linearGradient id="SVGID_12_" gradientUnits="userSpaceOnUse" x1="1067.9093" y1="943.086" x2="1067.9093" y2="538.1176" gradientTransform="matrix(1 0 0 1 -179 361.2289)">
	<stop  offset="0" style="stop-color:#B3B3B3;stop-opacity:0.25"/>
	<stop  offset="0.54" style="stop-color:#B3B3B3;stop-opacity:0.1"/>
	<stop  offset="1" style="stop-color:#B3B3B3;stop-opacity:5.000000e-02"/>
</linearGradient>
<path class="st19" d="M958.8,947.2c-59.7-62.1-158.4-64-220.4-4.3c-0.9,0.9-1.8,1.8-2.7,2.7c-59,59.5-60,156.3-2.3,217.1
	c52.3,55.1,136.8,64.4,199.9,22.1L1046,1302c2.9,3,7.7,3.1,10.7,0.2l28.1-27c3-2.9,3.1-7.7,0.2-10.7l-112.7-117.4
	C1016.9,1086,1011.2,1001.7,958.8,947.2z M923.7,1135.6c-44.4,42.7-115,41.3-157.7-3.1c-42.7-44.4-41.3-115,3.1-157.7
	c44.4-42.7,115-41.3,157.6,3.1C969.5,1022.4,968.1,1093,923.7,1135.6L923.7,1135.6z"/>
<linearGradient id="SVGID_13_" gradientUnits="userSpaceOnUse" x1="942.7817" y1="682.5065" x2="942.7817" y2="663.0065" gradientTransform="matrix(1 0 0 1 -179 361.2289)">
	<stop  offset="0" style="stop-color:#000000;stop-opacity:0.12"/>
	<stop  offset="0.55" style="stop-color:#000000;stop-opacity:9.000000e-02"/>
	<stop  offset="1" style="stop-color:#000000;stop-opacity:2.000000e-02"/>
</linearGradient>
<path class="st20" d="M763.8,1024.2c-12.5,0-12.6,19.5,0,19.5S776.4,1024.2,763.8,1024.2z"/>
<linearGradient id="SVGID_14_" gradientUnits="userSpaceOnUse" x1="1032.2965" y1="660.0927" x2="1032.2965" y2="600.545" gradientTransform="matrix(1 0 0 1 -179 361.2289)">
	<stop  offset="0" style="stop-color:#000000;stop-opacity:0.12"/>
	<stop  offset="0.55" style="stop-color:#000000;stop-opacity:9.000000e-02"/>
	<stop  offset="1" style="stop-color:#000000;stop-opacity:2.000000e-02"/>
</linearGradient>
<path class="st21" d="M851.2,961.8c-33.8-0.8-64.5,16.2-80.8,41.7c-5.3,8.3,9.8,15.7,15.1,7.4c13.5-21.2,39.2-34.6,67-33.9
	c29.1,0.7,55.6,17.4,69.7,40.5c5.3,8.8,19.3,0.8,14-7.9C919.1,981.6,886.1,962.6,851.2,961.8z"/>
<path class="st18" d="M971,941.3c-59.7-62.1-158.4-64-220.4-4.3c-0.9,0.9-1.8,1.8-2.7,2.7c-59,59.5-60,156.3-2.3,217.1
	c52.3,55.1,136.8,64.4,199.9,22l112.7,117.2c2.9,3,7.7,3.1,10.7,0.2l28.1-27c3-2.9,3.1-7.7,0.2-10.7l-112.7-117.3
	C1029.1,1080.1,1023.4,995.8,971,941.3z M935.9,1129.6c-44.4,42.7-115,41.3-157.7-3.1c-42.7-44.4-41.3-115,3.1-157.7
	c44.4-42.7,115-41.3,157.6,3.1C981.7,1016.4,980.3,1087,935.9,1129.6L935.9,1129.6z"/>
<path class="st18" d="M776,1018.3c-12.5,0-12.6,19.5,0,19.5S788.6,1018.3,776,1018.3z"/>
<path class="st18" d="M863.5,955.9c-33.8-0.8-64.5,16.2-80.8,41.7c-5.3,8.3,9.8,15.7,15.1,7.4c13.5-21.2,39.2-34.6,67-33.9
	c29.1,0.7,55.6,17.4,69.7,40.5c5.3,8.8,19.3,0.8,14-7.9C931.3,975.6,898.3,956.6,863.5,955.9z"/>
<rect x="378.8" y="1261.1" class="st18" width="3.5" height="19.8"/>
<rect x="370.6" y="1269.3" class="st18" width="19.8" height="3.5"/>
<path class="st16" d="M829.2,605.1c-2-0.9-3-3.1-2.4-5.2c0-0.2,0.1-0.3,0.1-0.5l0,0c0.1-1.2-0.8-2.2-2-2.3c-0.7,0-1.4,0.3-1.9,0.9
	l0,0c-0.1,0.1-0.2,0.3-0.2,0.4c-0.9,2-3.1,3-5.2,2.4c-0.2,0-0.3-0.1-0.5-0.1l0,0c-1.2-0.1-2.2,0.8-2.3,2c-0.1,0.7,0.3,1.5,0.9,1.9
	l0,0c0.1,0.1,0.3,0.2,0.4,0.2c2,0.9,3,3.1,2.4,5.2c0,0.2-0.1,0.3-0.1,0.5l0,0c-0.1,1.2,0.8,2.2,2,2.3c0.8,0.1,1.5-0.3,1.9-0.9l0,0
	c0.1-0.1,0.2-0.3,0.2-0.4c0.9-2,3.1-3,5.2-2.4c0.2,0,0.3,0.1,0.5,0.1l0,0c1.2,0.1,2.2-0.8,2.3-2c0-0.7-0.3-1.4-0.9-1.9l0,0
	C829.5,605.3,829.4,605.2,829.2,605.1z"/>
<path class="st16" d="M394.8,752.3c-2-0.9-3-3.1-2.4-5.2c0-0.2,0.1-0.3,0.1-0.5l0,0c0.1-1.2-0.8-2.2-2-2.3c-0.7,0-1.4,0.3-1.9,0.9
	l0,0c-0.1,0.1-0.2,0.3-0.2,0.4c-0.9,2-3.1,3-5.2,2.4c-0.2,0-0.3-0.1-0.5-0.1l0,0c-1.2-0.1-2.2,0.8-2.3,2c0,0.7,0.3,1.4,0.9,1.9l0,0
	c0.1,0.1,0.3,0.2,0.4,0.2c2,0.9,3,3.1,2.4,5.2c0,0.2-0.1,0.3-0.1,0.5l0,0c-0.1,1.2,0.8,2.2,2,2.3c0.7,0,1.4-0.3,1.9-0.9l0,0
	c0.1-0.1,0.2-0.3,0.2-0.4c0.9-2,3.1-3,5.2-2.4c0.2,0,0.3,0.1,0.5,0.1l0,0c1.2,0.1,2.2-0.8,2.3-2c0-0.7-0.3-1.4-0.9-1.9l0,0
	C395.1,752.4,394.9,752.3,394.8,752.3z"/>
<path class="st16" d="M1012.5,1359.5c-2-0.9-3-3.1-2.4-5.2c0-0.2,0.1-0.3,0.1-0.5l0,0c0.1-1.2-0.8-2.2-2-2.3c-0.7,0-1.4,0.3-1.9,0.9
	l0,0c-0.1,0.1-0.2,0.3-0.2,0.4c-0.9,2-3.1,3-5.2,2.4c-0.2,0-0.3-0.1-0.5-0.1l0,0c-1.2-0.1-2.2,0.8-2.3,2c0,0.7,0.3,1.4,0.9,1.9l0,0
	c0.1,0.1,0.3,0.2,0.4,0.2c2,0.9,3,3.1,2.4,5.2c0,0.2-0.1,0.3-0.1,0.5l0,0c-0.1,1.2,0.8,2.2,2,2.3c0.7,0,1.4-0.3,1.9-0.9l0,0
	c0.1-0.1,0.2-0.3,0.2-0.4c0.9-2,3.1-3,5.2-2.4c0.2,0,0.3,0.1,0.5,0.1l0,0c1.2,0.1,2.2-0.8,2.3-2c0-0.7-0.3-1.4-0.9-1.9l0,0
	C1012.8,1359.7,1012.7,1359.6,1012.5,1359.5z"/>
<circle class="st18" cx="578.5" cy="672.5" r="7"/>
<circle class="st18" cx="1080.6" cy="760.1" r="7"/>
<circle class="st16" cx="1040.9" cy="969.1" r="7"/>
<circle class="st18" cx="264.3" cy="625.8" r="7"/>
<g>
	<polygon class="st18" points="593.6,279.6 628.8,335.6 494.4,345.9 464.7,288.7 	"/>
	<polygon class="st18" points="422.7,299.8 275.9,309.2 309.4,366.9 457.5,355.1 	"/>
	<path class="st22" d="M461.8,276.3c-14.8-0.8-29.2,5.2-39.1,16.2c-3.7,4-4.8,9.8-2.9,14.9l16.5,43.8c2.4,6.4,8.6,10.7,15.5,10.7
		c16.6,0,45.2-3.4,46.6-27.2c0.1-2.6-0.4-5.3-1.7-7.6l-22-42.4C472.2,279.8,467.3,276.6,461.8,276.3z"/>
	
		<ellipse transform="matrix(0.9123 -0.4096 0.4096 0.9123 -110.6014 235.1355)" class="st18" cx="493.5" cy="375.7" rx="58.8" ry="39.9"/>
	<path class="st23" d="M455.1,407.4c3.7,8.2,23.9,7.3,46.7-1.6c2-0.8,4-1.6,6.1-2.6c1.5-0.7,3-1.4,4.4-2.1
		C535,390,549.8,375,546,366.5s-25.2-7.3-48.8,2.4c-1.3,0.5-2.6,1.1-4,1.7c-4.6,2.1-9,4.4-13.4,6.9
		C462.4,388,451.9,400.2,455.1,407.4z"/>
	<path class="st22" d="M479.9,377.7l21.9,28.2l15.7,20.1l5.3-2.4l-10.5-22.4l-15-32.1c-1.3,0.5-2.6,1.1-4,1.7
		C488.7,372.8,484.2,375.1,479.9,377.7z"/>
	<circle class="st22" cx="522.6" cy="429.8" r="7.1"/>
	<path class="st16" d="M487.7,496.7c0.6-0.1,1.2-0.1,1.8,0.1c37.4,11.8,69.3,4.2,97.5-23.1c1.4-1.3,3.5-1.3,4.8,0.1s1.3,3.5-0.1,4.8
		c-29.7,28.8-64.8,37.1-104.3,24.7c-1.8-0.6-2.8-2.5-2.2-4.3C485.6,497.8,486.5,497,487.7,496.7L487.7,496.7z"/>
	<path class="st16" d="M493.9,466.1c0.6-0.1,1.2-0.1,1.8,0.1c28.1,8.8,52,3.2,73.1-17.3c1.4-1.3,3.5-1.3,4.8,0.1s1.3,3.5-0.1,4.8
		c-22.8,22.1-49.7,28.4-79.9,18.9c-1.8-0.6-2.8-2.5-2.2-4.3C491.8,467.2,492.7,466.4,493.9,466.1L493.9,466.1z"/>
	<path class="st16" d="M485.1,530.1c0.6-0.1,1.2-0.1,1.8,0.1c37.3,11.8,92.7-1.3,120.8-28.6c1.4-1.3,3.5-1.3,4.8,0.1
		s1.3,3.5-0.1,4.8c-29.7,28.8-88.1,42.6-127.6,30.2c-1.8-0.6-2.8-2.5-2.2-4.3C482.9,531.2,483.9,530.4,485.1,530.1L485.1,530.1z"/>
</g>
</svg>
