<?xml version="1.0" encoding="utf-8"?>
<!-- Generator: Adobe Illustrator 24.0.3, SVG Export Plug-In . SVG Version: 6.00 Build 0)  -->
<svg version="1.1" id="c1beeda2-3973-4ae6-86a9-52f16471172f"
	 xmlns="http://www.w3.org/2000/svg" xmlns:xlink="http://www.w3.org/1999/xlink" x="0px" y="0px" viewBox="0 0 1052.9 809.9"
	 style="enable-background:new 0 0 1052.9 809.9;" xml:space="preserve">
<style type="text/css">
	.st0{fill:#6DDBEE;}
	.st1{fill:#EEEEEE;}
	.st2{fill:#E0E0E0;}
	.st3{opacity:0.5;}
	.st4{fill:url(#SVGID_1_);}
	.st5{fill:#FDA57D;}
	.st6{fill:#4D8AF0;}
	.st7{opacity:0.1;enable-background:new    ;}
	.st8{fill:#FFFFFF;}
	.st9{fill:#333333;}
	.st10{fill:#EA87A0;}
	.st11{fill:url(#SVGID_2_);}
	.st12{opacity:0.2;enable-background:new    ;}
	.st13{fill:url(#SVGID_3_);}
	.st14{fill:url(#SVGID_4_);}
	.st15{fill:url(#SVGID_5_);}
	.st16{fill:url(#SVGID_6_);}
	.st17{opacity:0.2;}
	.st18{fill:url(#SVGID_7_);}
	.st19{opacity:0.3;}
	.st20{fill:url(#SVGID_8_);}
	.st21{fill:url(#SVGID_9_);}
	.st22{fill:url(#SVGID_10_);}
	.st23{fill:url(#SVGID_11_);}
	.st24{fill:url(#SVGID_12_);}
	.st25{fill:url(#SVGID_13_);}
	.st26{fill:url(#SVGID_14_);}
	.st27{fill:url(#SVGID_15_);}
	.st28{fill:url(#SVGID_16_);}
	.st29{fill:url(#SVGID_17_);}
	.st30{fill:url(#SVGID_18_);}
	.st31{fill:url(#SVGID_19_);}
	.st32{fill:url(#SVGID_20_);}
	.st33{fill:url(#SVGID_21_);}
	.st34{fill:#D0CDE1;}
</style>
<title>news</title>
<rect x="147.2" y="412.6" class="st0" width="75.4" height="11.4"/>
<polygon class="st1" points="147.2,423.8 138.7,809.9 144,809.9 155.8,424.1 "/>
<polygon class="st1" points="222.6,423.8 231.1,809.9 225.8,809.9 214,424.1 "/>
<polygon class="st2" points="163.3,424.1 154.1,809.9 160.5,809.9 169,423.8 "/>
<polygon class="st2" points="208.1,424.1 217.3,809.9 210.9,809.9 202.4,423.8 "/>
<rect x="161.6" y="763.1" class="st2" width="48.5" height="5.9"/>
<rect x="160" y="730.6" class="st2" width="52.2" height="5.9"/>
<rect x="161.6" y="698.6" class="st2" width="50.6" height="5.9"/>
<rect x="161.6" y="666.1" class="st2" width="48.5" height="5.9"/>
<rect x="161.6" y="632.6" class="st2" width="48.5" height="5.3"/>
<rect x="163.2" y="600.6" class="st2" width="46.9" height="6.4"/>
<rect x="163.2" y="568.7" class="st2" width="45.3" height="4.3"/>
<rect x="164.8" y="534.6" class="st2" width="40" height="6.9"/>
<rect x="164.8" y="502.6" class="st2" width="41.5" height="5.9"/>
<rect x="164.8" y="469.6" class="st2" width="41.5" height="6.4"/>
<rect x="166.9" y="437.1" class="st2" width="37.8" height="6.4"/>
<rect x="129.6" y="390.8" class="st0" width="110.8" height="23.4"/>
<g class="st3">
	
		<linearGradient id="SVGID_1_" gradientUnits="userSpaceOnUse" x1="344.3964" y1="466.0498" x2="344.3964" y2="634.9498" gradientTransform="matrix(1 0 0 -1 -149.07 860.8996)">
		<stop  offset="0" style="stop-color:#808080;stop-opacity:0.25"/>
		<stop  offset="0.54" style="stop-color:#808080;stop-opacity:0.12"/>
		<stop  offset="1" style="stop-color:#808080;stop-opacity:0.1"/>
	</linearGradient>
	<path class="st4" d="M234.6,225.9L196,251c-0.4-1.6-1.3-2.9-2.5-3.9c0.5-1.2,0.5-2.5,0.2-3.8c-0.1-0.4-0.2-0.7-0.4-1
		c-0.4-0.4-1-0.5-1.5-0.4l-6.1,0.4c-0.7,0-1.4,0.2-2,0.6c-0.9,0.7-1.1,2.2-2,2.9c-0.6,0.4-1.3,0.4-2,0.7c-1.4,0.8-1.7,3-1.8,4.8
		c-0.1,2.5-0.1,5.4,1.5,7c1.2,1.1,2.8,1,4.3,0.9l1.5-0.1c0.4,0.2,0.8,0.4,1.2,0.6v2.1h-0.3c0,0-17.3-5-36.2,47.2h-0.3
		c0,0-2.8,9.5,1.7,7.8c3.9-1.5,4-6.3,3.9-7.5h0.3c0,0,7.8-22.9,20.1-25.7c0,0,8.9,11.2-5.6,33.5h11.4c0,2.5,0.5,5,1.5,7.3
		c3.4,6.7-6.7,70.4-6.7,70.4h8.4l4.2-21.1l0.5,21.1h6.1l6.2-40.6l-0.8-48.9v-12.7l1.1,1.5v-19.6h16.2l2.8-21.8h-0.3
		c0.1-1.5,0-3-0.2-4.6l20.9-4.4C244.6,229.8,234.6,225.9,234.6,225.9z M216.3,253.1l-4.9,12.5c0,0-13.4-6.1-18.4-3.9h-0.3v-2.7
		c2.1-1.2,3.4-3.4,3.6-5.8l20.1-4.2C216.1,250.4,216.1,251.8,216.3,253.1L216.3,253.1z"/>
</g>
<path class="st5" d="M219.3,256.3c0,0,0.6-9.2-2.2-7.2s-1.6,7.8-1.6,7.8L219.3,256.3z"/>
<path class="st5" d="M151.7,309c0,0-2.7,9,1.6,7.5s3.7-7.5,3.7-7.5H151.7z"/>
<rect x="186.9" y="260.5" class="st5" width="5.9" height="5.3"/>
<rect x="182.1" y="289.8" class="st6" width="4.8" height="24"/>
<rect x="182.1" y="289.8" class="st7" width="4.8" height="24"/>
<path class="st8" d="M189.2,264h5.5c3.2,0,5.8,2.6,5.8,5.8v35.8l0,0h-17l0,0v-35.8C183.5,266.6,186,264,189.2,264z"/>
<circle class="st5" cx="189.3" cy="255.5" r="6.9"/>
<path class="st0" d="M186.6,264c0,0-16.5-4.8-34.6,45.3h5.3c0,0,7.5-21.8,19.2-24.5c0,0,8.5,10.6-5.3,32h11.2v-7.1
	c-0.1-10.8,1.3-21.6,4-32.1C187.7,273.2,187.7,268.5,186.6,264z"/>
<path class="st0" d="M193,264v1.6c0,0,3.7,16.5,6.9,27.2l1.6,2.2v-18.7H217l2.7-20.8h-4.3l-4.9,12.2
	C210.6,267.7,197.8,261.9,193,264z"/>
<path class="st9" d="M183.4,305.6c0,0-3.2,11.7,0,18.1s-6.4,67.1-6.4,67.1h8l11.4-57.3l1.9-28L183.4,305.6z"/>
<polygon class="st9" points="200.5,305.6 201.3,352.2 195.4,390.8 189.6,390.8 187.4,305.6 "/>
<path class="st9" d="M188.2,252.8c0.1-0.2,0.3-0.4,0.5-0.6c0.2-0.1,0.4-0.2,0.7-0.2c1.4-0.1,3.1-0.1,4-1.5c0.6-1.2,0.8-2.7,0.4-4
	c0-0.4-0.2-0.7-0.4-1c-0.4-0.4-0.9-0.5-1.4-0.4l-5.8,0.4c-0.7,0-1.3,0.2-1.9,0.6c-0.8,0.7-1.1,2.1-1.9,2.7c-0.6,0.4-1.3,0.4-1.9,0.7
	c-1.3,0.7-1.6,2.8-1.7,4.6c-0.1,2.4-0.1,5.2,1.4,6.6c1.1,1.1,2.7,1,4.1,0.9l2.7-0.2c0.3,0,0.5-0.1,0.8-0.2c0.3-0.5,0.5-1,0.4-1.6
	c-0.1-1.3-0.2-2.9-1.1-3.7c-0.2-0.2-0.4-0.3-0.6-0.5C185.4,253.8,187.7,253.5,188.2,252.8z"/>
<path class="st10" d="M232.7,229.9c0,0,9.6,3.7,6.4,17L196,256v-2.1L232.7,229.9z"/>
<rect x="147.5" y="413.9" class="st7" width="75.1" height="2.1"/>
<rect x="159.7" y="564.1" class="st7" width="5.9" height="1.1"/>
<rect x="205.5" y="564.1" class="st7" width="5.9" height="1.1"/>
<rect x="147.2" y="555.4" class="st1" width="75.1" height="9"/>
<linearGradient id="SVGID_2_" gradientUnits="userSpaceOnUse" x1="484.0673" y1="249.4832" x2="484.0673" y2="264.6028" gradientTransform="matrix(0.9979 -6.540313e-02 -6.540313e-02 -0.9979 -194.7541 518.2571)">
	<stop  offset="0" style="stop-color:#808080;stop-opacity:0.25"/>
	<stop  offset="0.54" style="stop-color:#808080;stop-opacity:0.12"/>
	<stop  offset="1" style="stop-color:#808080;stop-opacity:0.1"/>
</linearGradient>
<polygon class="st11" points="280.8,226.3 281.5,225.9 281.4,225.9 281.4,225.9 281.3,225.9 260.7,223.2 261.1,230 261.8,236.1 
	263,235.5 264.2,238.1 "/>
<polygon class="st10" points="261.8,229.9 262.4,235.5 280.9,226.1 264.8,226.5 "/>
<polygon class="st12" points="261.8,229.9 262.4,235.5 280.9,226.1 264.8,226.5 "/>
<polygon class="st10" points="261.4,223.7 280.9,226.1 261.8,229.9 "/>
<polygon class="st10" points="264.7,237.3 280.7,226.1 262.1,231.6 "/>
<linearGradient id="SVGID_3_" gradientUnits="userSpaceOnUse" x1="585.7917" y1="271.4632" x2="585.7917" y2="286.5834" gradientTransform="matrix(0.9979 -6.540313e-02 -6.540313e-02 -0.9979 -194.7541 518.2571)">
	<stop  offset="0" style="stop-color:#808080;stop-opacity:0.25"/>
	<stop  offset="0.54" style="stop-color:#808080;stop-opacity:0.12"/>
	<stop  offset="1" style="stop-color:#808080;stop-opacity:0.1"/>
</linearGradient>
<polygon class="st13" points="380.9,197.7 381.6,197.3 381.4,197.3 381.5,197.3 381.4,197.3 360.7,194.6 361.2,201.5 361.8,207.5 
	363.1,206.9 364.3,209.5 "/>
<polygon class="st10" points="361.9,201.3 362.5,206.9 380.9,197.5 364.9,197.9 "/>
<polygon class="st12" points="361.9,201.3 362.5,206.9 380.9,197.5 364.9,197.9 "/>
<polygon class="st10" points="361.5,195.1 380.9,197.5 361.9,201.3 "/>
<polygon class="st10" points="364.8,208.7 380.8,197.5 362.2,203 "/>
<linearGradient id="SVGID_4_" gradientUnits="userSpaceOnUse" x1="708.6013" y1="182.0831" x2="708.6013" y2="205.1817" gradientTransform="matrix(0.9725 -0.2331 -0.2331 -0.9725 -100.8348 550.3228)">
	<stop  offset="0" style="stop-color:#808080;stop-opacity:0.25"/>
	<stop  offset="0.54" style="stop-color:#808080;stop-opacity:0.12"/>
	<stop  offset="1" style="stop-color:#808080;stop-opacity:0.1"/>
</linearGradient>
<polygon class="st14" points="556.2,188.8 557.2,188 557,188 557,187.9 556.9,188 525.1,189.3 527.5,199.5 530.1,208.5 531.8,207.2 
	534.3,210.9 "/>
<polygon class="st10" points="528.5,199.1 530.9,207.3 556.2,188.5 532.2,193.2 "/>
<polygon class="st12" points="528.5,199.1 530.9,207.3 556.2,188.5 532.2,193.2 "/>
<polygon class="st10" points="526.3,189.8 556.2,188.5 528.5,199.1 "/>
<polygon class="st10" points="534.8,209.5 556.1,188.4 529.4,201.6 "/>
<linearGradient id="SVGID_5_" gradientUnits="userSpaceOnUse" x1="719.2324" y1="342.3351" x2="719.2324" y2="357.4511" gradientTransform="matrix(0.9842 0.1771 0.1771 -0.9842 -307.989 464.7854)">
	<stop  offset="0" style="stop-color:#808080;stop-opacity:0.25"/>
	<stop  offset="0.54" style="stop-color:#808080;stop-opacity:0.12"/>
	<stop  offset="1" style="stop-color:#808080;stop-opacity:0.1"/>
</linearGradient>
<polygon class="st15" points="471.8,246.4 472.6,246.2 472.5,246.1 472.5,246.1 472.4,246.1 453,238.5 451.8,245.3 451,251.3 
	452.4,251 452.9,253.8 "/>
<polygon class="st10" points="452.5,245.3 451.7,250.8 471.9,246.2 456.3,242.7 "/>
<polygon class="st12" points="452.5,245.3 451.7,250.8 471.9,246.2 456.3,242.7 "/>
<polygon class="st10" points="453.6,239.1 471.9,246.2 452.5,245.3 "/>
<polygon class="st10" points="453.5,253.2 471.8,246.1 452.4,247 "/>
<g class="st3">
	
		<linearGradient id="SVGID_6_" gradientUnits="userSpaceOnUse" x1="554.907" y1="153.3732" x2="554.907" y2="168.4928" gradientTransform="matrix(0.9979 -6.540313e-02 -6.540313e-02 -0.9979 -194.7541 518.2571)">
		<stop  offset="0" style="stop-color:#808080;stop-opacity:0.25"/>
		<stop  offset="0.54" style="stop-color:#808080;stop-opacity:0.12"/>
		<stop  offset="1" style="stop-color:#808080;stop-opacity:0.1"/>
	</linearGradient>
	<polygon class="st16" points="357.8,317.6 358.5,317.2 358.3,317.2 358.4,317.1 358.3,317.2 337.6,314.5 338.1,321.3 338.7,327.4 
		340,326.7 341.2,329.4 	"/>
	<polygon class="st10" points="338.8,321.2 339.4,326.7 357.8,317.4 341.8,317.7 	"/>
	<polygon class="st12" points="338.8,321.2 339.4,326.7 357.8,317.4 341.8,317.7 	"/>
	<polygon class="st10" points="338.4,314.9 357.8,317.4 338.8,321.2 	"/>
	<polygon class="st10" points="341.7,328.6 357.7,317.3 339.1,322.9 	"/>
</g>
<g class="st17">
	
		<linearGradient id="SVGID_7_" gradientUnits="userSpaceOnUse" x1="724.486" y1="139.8231" x2="724.486" y2="162.9314" gradientTransform="matrix(0.9725 -0.2331 -0.2331 -0.9725 -100.8348 550.3228)">
		<stop  offset="0" style="stop-color:#808080;stop-opacity:0.25"/>
		<stop  offset="0.54" style="stop-color:#808080;stop-opacity:0.12"/>
		<stop  offset="1" style="stop-color:#808080;stop-opacity:0.1"/>
	</linearGradient>
	<polygon class="st18" points="581.5,226.2 582.5,225.4 582.2,225.4 582.3,225.3 582.2,225.4 550.4,226.7 552.8,236.9 555.4,245.9 
		557.1,244.5 559.6,248.3 	"/>
	<polygon class="st10" points="553.8,236.5 556.2,244.7 581.5,225.9 557.5,230.5 	"/>
	<polygon class="st12" points="553.8,236.5 556.2,244.7 581.5,225.9 557.5,230.5 	"/>
	<polygon class="st10" points="551.6,227.2 581.5,225.9 553.8,236.5 	"/>
	<polygon class="st10" points="560.1,246.9 581.4,225.8 554.7,239 	"/>
</g>
<g class="st19">
	
		<linearGradient id="SVGID_8_" gradientUnits="userSpaceOnUse" x1="780.9324" y1="12.0931" x2="780.9324" y2="35.2014" gradientTransform="matrix(0.9725 -0.2331 -0.2331 -0.9725 -100.8348 550.3228)">
		<stop  offset="0" style="stop-color:#808080;stop-opacity:0.25"/>
		<stop  offset="0.54" style="stop-color:#808080;stop-opacity:0.12"/>
		<stop  offset="1" style="stop-color:#808080;stop-opacity:0.1"/>
	</linearGradient>
	<polygon class="st20" points="666.2,337.2 667.2,336.5 666.9,336.5 667,336.4 666.8,336.5 635.1,337.8 637.5,348 640,356.9 
		641.8,355.6 644.2,359.3 	"/>
	<polygon class="st10" points="638.5,347.6 640.8,355.8 666.2,336.9 642.2,341.6 	"/>
	<polygon class="st12" points="638.5,347.6 640.8,355.8 666.2,336.9 642.2,341.6 	"/>
	<polygon class="st10" points="636.3,338.3 666.2,336.9 638.5,347.6 	"/>
	<polygon class="st10" points="644.7,358 666,336.9 639.4,350 	"/>
</g>
<g class="st19">
	
		<linearGradient id="SVGID_9_" gradientUnits="userSpaceOnUse" x1="1022.6262" y1="-102.3669" x2="1022.6262" y2="-79.261" gradientTransform="matrix(0.9725 -0.2331 -0.2331 -0.9725 -100.8348 550.3228)">
		<stop  offset="0" style="stop-color:#808080;stop-opacity:0.25"/>
		<stop  offset="0.54" style="stop-color:#808080;stop-opacity:0.12"/>
		<stop  offset="1" style="stop-color:#808080;stop-opacity:0.1"/>
	</linearGradient>
	<polygon class="st21" points="927.9,392.2 928.9,391.4 928.6,391.5 928.7,391.4 928.6,391.5 896.8,392.8 899.2,402.9 901.7,411.9 
		903.5,410.6 906,414.3 	"/>
	<polygon class="st10" points="900.2,402.6 902.5,410.8 927.9,391.9 903.9,396.6 	"/>
	<polygon class="st12" points="900.2,402.6 902.5,410.8 927.9,391.9 903.9,396.6 	"/>
	<polygon class="st10" points="898,393.3 927.9,391.9 900.2,402.6 	"/>
	<polygon class="st10" points="906.5,413 927.7,391.9 901.1,405 	"/>
</g>
<g class="st3">
	
		<linearGradient id="SVGID_10_" gradientUnits="userSpaceOnUse" x1="738.2532" y1="255.2572" x2="738.2532" y2="270.3732" gradientTransform="matrix(0.9842 0.1771 0.1771 -0.9842 -307.989 464.7854)">
		<stop  offset="0" style="stop-color:#808080;stop-opacity:0.25"/>
		<stop  offset="0.54" style="stop-color:#808080;stop-opacity:0.12"/>
		<stop  offset="1" style="stop-color:#808080;stop-opacity:0.1"/>
	</linearGradient>
	<polygon class="st22" points="475.1,335.4 475.9,335.2 475.8,335.2 475.8,335.1 475.7,335.2 456.3,327.6 455.1,334.3 454.3,340.4 
		455.7,340 456.2,342.9 	"/>
	<polygon class="st10" points="455.8,334.4 455,339.9 475.2,335.3 459.6,331.7 	"/>
	<polygon class="st12" points="455.8,334.4 455,339.9 475.2,335.3 459.6,331.7 	"/>
	<polygon class="st10" points="456.9,328.2 475.2,335.3 455.8,334.4 	"/>
	<polygon class="st10" points="456.8,342.2 475.1,335.2 455.7,336.1 	"/>
</g>
<g class="st3">
	
		<linearGradient id="SVGID_11_" gradientUnits="userSpaceOnUse" x1="1115.325" y1="190.1432" x2="1115.325" y2="205.2593" gradientTransform="matrix(0.9842 0.1771 0.1771 -0.9842 -307.989 464.7854)">
		<stop  offset="0" style="stop-color:#808080;stop-opacity:0.25"/>
		<stop  offset="0.54" style="stop-color:#808080;stop-opacity:0.12"/>
		<stop  offset="1" style="stop-color:#808080;stop-opacity:0.1"/>
	</linearGradient>
	<polygon class="st23" points="834.7,466.3 835.5,466.1 835.3,466 835.4,466 835.3,466 815.9,458.4 814.7,465.2 813.9,471.2 
		815.2,470.9 815.7,473.8 	"/>
	<polygon class="st10" points="815.4,465.2 814.6,470.7 834.8,466.1 819.2,462.6 	"/>
	<polygon class="st12" points="815.4,465.2 814.6,470.7 834.8,466.1 819.2,462.6 	"/>
	<polygon class="st10" points="816.5,459.1 834.8,466.1 815.4,465.2 	"/>
	<polygon class="st10" points="816.4,473.1 834.7,466 815.3,466.9 	"/>
</g>
<g class="st3">
	
		<linearGradient id="SVGID_12_" gradientUnits="userSpaceOnUse" x1="1069.1443" y1="322.6193" x2="1069.1443" y2="337.7336" gradientTransform="matrix(0.9842 0.1771 0.1771 -0.9842 -307.989 464.7854)">
		<stop  offset="0" style="stop-color:#808080;stop-opacity:0.25"/>
		<stop  offset="0.54" style="stop-color:#808080;stop-opacity:0.12"/>
		<stop  offset="1" style="stop-color:#808080;stop-opacity:0.1"/>
	</linearGradient>
	<polygon class="st24" points="812.7,327.7 813.5,327.5 813.3,327.5 813.4,327.4 813.3,327.5 793.9,319.9 792.7,326.6 791.9,332.7 
		793.3,332.3 793.8,335.2 	"/>
	<polygon class="st10" points="793.4,326.7 792.6,332.2 812.8,327.6 797.2,324 	"/>
	<polygon class="st12" points="793.4,326.7 792.6,332.2 812.8,327.6 797.2,324 	"/>
	<polygon class="st10" points="794.5,320.5 812.8,327.6 793.4,326.7 	"/>
	<polygon class="st10" points="794.4,334.5 812.7,327.5 793.3,328.4 	"/>
</g>
<g class="st17">
	
		<linearGradient id="SVGID_13_" gradientUnits="userSpaceOnUse" x1="1228.3531" y1="468.5796" x2="1228.3531" y2="483.6938" gradientTransform="matrix(0.9842 0.1771 0.1771 -0.9842 -307.989 464.7854)">
		<stop  offset="0" style="stop-color:#808080;stop-opacity:0.25"/>
		<stop  offset="0.54" style="stop-color:#808080;stop-opacity:0.12"/>
		<stop  offset="1" style="stop-color:#808080;stop-opacity:0.1"/>
	</linearGradient>
	<polygon class="st25" points="995.2,212.3 996.1,212.1 995.9,212 996,212 995.8,212 976.4,204.4 975.2,211.2 974.4,217.2 
		975.8,216.9 976.3,219.8 	"/>
	<polygon class="st10" points="975.9,211.2 975.2,216.7 995.3,212.1 979.7,208.6 	"/>
	<polygon class="st12" points="975.9,211.2 975.2,216.7 995.3,212.1 979.7,208.6 	"/>
	<polygon class="st10" points="977,205 995.3,212.1 975.9,211.2 	"/>
	<polygon class="st10" points="976.9,219.1 995.2,212 975.8,212.9 	"/>
</g>
<g class="st17">
	
		<linearGradient id="SVGID_14_" gradientUnits="userSpaceOnUse" x1="570.4651" y1="312.2146" x2="570.4651" y2="327.3307" gradientTransform="matrix(0.9842 0.1771 0.1771 -0.9842 -307.989 464.7854)">
		<stop  offset="0" style="stop-color:#808080;stop-opacity:0.25"/>
		<stop  offset="0.54" style="stop-color:#808080;stop-opacity:0.12"/>
		<stop  offset="1" style="stop-color:#808080;stop-opacity:0.1"/>
	</linearGradient>
	<polygon class="st26" points="320.1,249.7 320.9,249.5 320.7,249.4 320.8,249.4 320.7,249.4 301.3,241.8 300.1,248.6 299.2,254.6 
		300.6,254.3 301.1,257.1 	"/>
	<polygon class="st10" points="300.8,248.6 300,254.1 320.2,249.5 304.5,246 	"/>
	<polygon class="st12" points="300.8,248.6 300,254.1 320.2,249.5 304.5,246 	"/>
	<polygon class="st10" points="301.9,242.4 320.2,249.5 300.8,248.6 	"/>
	<polygon class="st10" points="301.8,256.5 320.1,249.4 300.7,250.3 	"/>
</g>
<linearGradient id="SVGID_15_" gradientUnits="userSpaceOnUse" x1="908.8414" y1="216.8032" x2="908.8414" y2="239.9089" gradientTransform="matrix(0.9979 -6.540313e-02 -6.540313e-02 -0.9979 -194.7541 518.2571)">
	<stop  offset="0" style="stop-color:#808080;stop-opacity:0.25"/>
	<stop  offset="0.54" style="stop-color:#808080;stop-opacity:0.12"/>
	<stop  offset="1" style="stop-color:#808080;stop-opacity:0.1"/>
</linearGradient>
<polygon class="st27" points="711.5,225.1 712.6,224.5 712.3,224.5 712.4,224.4 712.3,224.5 680.7,220.4 681.4,230.9 682.4,240.1 
	684.3,239.1 686.1,243.2 "/>
<polygon class="st10" points="682.4,230.7 683.4,239.1 711.6,224.8 687.1,225.4 "/>
<polygon class="st12" points="682.4,230.7 683.4,239.1 711.6,224.8 687.1,225.4 "/>
<polygon class="st10" points="681.8,221.1 711.6,224.8 682.4,230.7 "/>
<polygon class="st10" points="686.8,242 711.4,224.8 682.9,233.2 "/>
<linearGradient id="SVGID_16_" gradientUnits="userSpaceOnUse" x1="996.7753" y1="323.2012" x2="996.7753" y2="376.0566" gradientTransform="matrix(0.8905 0.4551 0.4551 -0.8905 -296.5578 239.0973)">
	<stop  offset="0" style="stop-color:#808080;stop-opacity:0.25"/>
	<stop  offset="0.54" style="stop-color:#808080;stop-opacity:0.12"/>
	<stop  offset="1" style="stop-color:#808080;stop-opacity:0.1"/>
</linearGradient>
<polygon class="st28" points="784.9,386.7 787.9,386.9 787.4,386.5 787.6,386.5 787.2,386.4 730,341.4 719.1,362.7 710.2,382.1 
	715.2,382.4 713.9,392.6 "/>
<polygon class="st10" points="721.4,363.6 713.3,381.3 785.4,386.3 736.7,358.6 "/>
<polygon class="st12" points="721.4,363.6 713.3,381.3 785.4,386.3 736.7,358.6 "/>
<polygon class="st10" points="731.4,344.1 785.4,386.3 721.4,363.6 "/>
<polygon class="st10" points="716.8,390.9 785.2,385.9 719.4,369.2 "/>
<linearGradient id="SVGID_17_" gradientUnits="userSpaceOnUse" x1="1194.9691" y1="111.6877" x2="1194.9691" y2="222.0677" gradientTransform="matrix(0.9 0.43 0.43 -0.9 -195.5143 185.5888)">
	<stop  offset="0" style="stop-color:#808080;stop-opacity:0.25"/>
	<stop  offset="0.54" style="stop-color:#808080;stop-opacity:0.12"/>
	<stop  offset="1" style="stop-color:#808080;stop-opacity:0.1"/>
</linearGradient>
<polygon class="st29" points="1025.4,557 1031.5,557.2 1030.5,556.5 1031,556.4 1030.1,556.2 907.9,465.9 886.5,511.1 869.1,552.1 
	879.6,552.4 877.6,573.7 "/>
<polygon class="st10" points="891.4,512.7 875.5,550.2 1026.4,556.1 923,501.4 "/>
<polygon class="st12" points="891.4,512.7 875.5,550.2 1026.4,556.1 923,501.4 "/>
<polygon class="st10" points="910.9,471.4 1026.4,556.1 891.4,512.7 "/>
<polygon class="st10" points="883.5,570.1 1025.9,555.3 887.5,524.5 "/>
<linearGradient id="SVGID_18_" gradientUnits="userSpaceOnUse" x1="1113.4756" y1="228.4131" x2="1113.4756" y2="281.2348" gradientTransform="matrix(1 -1.000000e-02 -1.000000e-02 -1 -223.5005 494.876)">
	<stop  offset="0" style="stop-color:#808080;stop-opacity:0.25"/>
	<stop  offset="0.54" style="stop-color:#808080;stop-opacity:0.12"/>
	<stop  offset="1" style="stop-color:#808080;stop-opacity:0.1"/>
</linearGradient>
<polygon class="st30" points="920.7,213.2 923.4,211.9 922.8,211.8 923,211.7 922.6,211.8 851,198.8 851.3,222.7 852.5,244 
	857.1,241.9 860.7,251.5 "/>
<polygon class="st10" points="853.8,222.4 854.9,241.9 921,212.5 865,210.9 "/>
<polygon class="st12" points="853.8,222.4 854.9,241.9 921,212.5 865,210.9 "/>
<polygon class="st10" points="853.5,200.5 921,212.5 853.8,222.4 "/>
<polygon class="st10" points="862.5,248.7 920.6,212.3 854.6,228.3 "/>
<linearGradient id="SVGID_19_" gradientUnits="userSpaceOnUse" x1="1188.5453" y1="147.0631" x2="1188.5453" y2="199.8848" gradientTransform="matrix(1 -1.000000e-02 -1.000000e-02 -1 -223.5005 494.876)">
	<stop  offset="0" style="stop-color:#808080;stop-opacity:0.25"/>
	<stop  offset="0.54" style="stop-color:#808080;stop-opacity:0.12"/>
	<stop  offset="1" style="stop-color:#808080;stop-opacity:0.1"/>
</linearGradient>
<polygon class="st31" points="996.6,293.4 999.3,292.2 998.7,292.1 998.9,292 998.5,292.1 926.9,279.1 927.2,303 928.4,324.3 
	932.9,322.2 936.6,331.8 "/>
<polygon class="st10" points="929.6,302.7 930.7,322.1 996.8,292.8 940.8,291.2 "/>
<polygon class="st12" points="929.6,302.7 930.7,322.1 996.8,292.8 940.8,291.2 "/>
<polygon class="st10" points="929.3,280.8 996.8,292.8 929.6,302.7 "/>
<polygon class="st10" points="938.4,329 996.5,292.6 930.5,308.6 "/>
<linearGradient id="SVGID_20_" gradientUnits="userSpaceOnUse" x1="805.6378" y1="159.8832" x2="805.6378" y2="182.9882" gradientTransform="matrix(0.9979 -6.540313e-02 -6.540313e-02 -0.9979 -194.7541 518.2571)">
	<stop  offset="0" style="stop-color:#808080;stop-opacity:0.25"/>
	<stop  offset="0.54" style="stop-color:#808080;stop-opacity:0.12"/>
	<stop  offset="1" style="stop-color:#808080;stop-opacity:0.1"/>
</linearGradient>
<polygon class="st32" points="612.2,288.7 613.3,288.1 613.1,288.1 613.2,288 613,288 581.4,284 582.1,294.4 583.1,303.7 
	585.1,302.7 586.9,306.8 "/>
<polygon class="st10" points="583.2,294.2 584.1,302.7 612.3,288.4 587.8,288.9 "/>
<polygon class="st12" points="583.2,294.2 584.1,302.7 612.3,288.4 587.8,288.9 "/>
<polygon class="st10" points="582.6,284.7 612.3,288.4 583.2,294.2 "/>
<polygon class="st10" points="587.6,305.5 612.1,288.3 583.7,296.8 "/>
<linearGradient id="SVGID_21_" gradientUnits="userSpaceOnUse" x1="996.3979" y1="161.7032" x2="996.3979" y2="184.8082" gradientTransform="matrix(0.9979 -6.540313e-02 -6.540313e-02 -0.9979 -194.7541 518.2571)">
	<stop  offset="0" style="stop-color:#808080;stop-opacity:0.25"/>
	<stop  offset="0.54" style="stop-color:#808080;stop-opacity:0.12"/>
	<stop  offset="1" style="stop-color:#808080;stop-opacity:0.1"/>
</linearGradient>
<polygon class="st33" points="802.4,274.4 803.6,273.8 803.3,273.8 803.4,273.7 803.2,273.7 771.7,269.7 772.4,280.1 773.4,289.4 
	775.3,288.4 777.1,292.5 "/>
<polygon class="st10" points="773.4,279.9 774.3,288.4 802.5,274.1 778.1,274.6 "/>
<polygon class="st12" points="773.4,279.9 774.3,288.4 802.5,274.1 778.1,274.6 "/>
<polygon class="st10" points="772.8,270.4 802.5,274.1 773.4,279.9 "/>
<polygon class="st10" points="777.8,291.2 802.4,274 773.9,282.5 "/>
<g>
	<polygon class="st10" points="203.1,55.1 218.1,85.1 149.7,83.6 137.5,53.3 	"/>
	<polygon class="st10" points="115.8,56.8 41.2,54.3 55.3,85.1 130.6,86.4 	"/>
	<path class="st34" d="M136.7,46.9c-7.4-1.1-15,1.2-20.5,6.3c-2.1,1.8-2.9,4.7-2.2,7.4l6.2,22.9c0.9,3.4,3.8,5.8,7.3,6.2
		c8.4,0.8,23,0.5,24.8-11.4c0.2-1.3,0-2.7-0.5-3.9l-9-22.5C141.8,49.2,139.4,47.3,136.7,46.9z"/>
	
		<ellipse transform="matrix(0.9477 -0.3191 0.3191 0.9477 -23.7474 52.3395)" class="st10" cx="147.9" cy="98.6" rx="29.8" ry="20.3"/>
	<path class="st12" d="M126.8,112.8c1.5,4.3,11.7,4.9,23.6,1.5c1.1-0.3,2.1-0.6,3.2-1c0.8-0.3,1.6-0.5,2.3-0.8
		c12-4.5,20.2-11.4,18.7-15.8c-1.5-4.5-12.4-4.9-24.7-1.2c-0.7,0.2-1.4,0.4-2.1,0.7c-2.4,0.8-4.8,1.8-7.1,2.8
		C131.5,103.3,125.6,108.9,126.8,112.8z"/>
	<path class="st34" d="M140.8,99l9.7,15.3l6.9,10.9l2.8-1l-4.2-11.8l-6-17c-0.7,0.2-1.4,0.4-2.1,0.7C145.5,96.9,143.1,97.9,140.8,99
		z"/>
	<circle class="st34" cx="159.8" cy="127.4" r="3.6"/>
	<path class="st0" d="M138.9,159.4c0.3,0,0.6,0,0.9,0.1c18.3,7.8,34.8,5.6,50.4-6.8c0.7-0.6,1.8-0.5,2.4,0.3
		c0.6,0.7,0.5,1.8-0.3,2.4c-16.4,13.1-34.6,15.5-53.9,7.3c-0.9-0.4-1.3-1.4-0.9-2.3C137.8,159.9,138.3,159.5,138.9,159.4
		L138.9,159.4z"/>
	<path class="st0" d="M143.5,144.3c0.3,0,0.6,0,0.9,0.1c13.7,5.8,26.1,4.2,37.8-5.1c0.7-0.6,1.8-0.5,2.4,0.3
		c0.6,0.7,0.5,1.8-0.3,2.4c-12.6,10-26.5,11.9-41.3,5.6c-0.9-0.4-1.3-1.4-0.9-2.3C142.4,144.8,142.9,144.4,143.5,144.3L143.5,144.3z
		"/>
	<path class="st0" d="M135.9,176.2c0.3,0,0.6,0,0.9,0.1c18.3,7.8,46.8,3.9,62.4-8.5c0.7-0.6,1.8-0.5,2.4,0.3
		c0.6,0.7,0.5,1.8-0.3,2.4c-16.4,13.1-46.6,17.2-65.9,9c-0.9-0.4-1.3-1.4-0.9-2.3C134.8,176.6,135.3,176.2,135.9,176.2L135.9,176.2z
		"/>
</g>
</svg>
