<?xml version="1.0" encoding="UTF-8"?>
<svg id="Layer_2" data-name="Layer 2" xmlns="http://www.w3.org/2000/svg" viewBox="0 0 210.78 218.3">
  <defs>
    <style>
      .cls-1 {
        fill: #fff;
      }
    </style>
  </defs>
  <g id="Layer_1-2" data-name="Layer 1">
    <g>
      <path class="cls-1" d="m52.17,218.3H1c-.66,0-1.13-.62-.97-1.26L39.43,68.55c.12-.44.51-.74.97-.74h51.17c.66,0,1.13.62.97,1.26l-39.4,148.49c-.12.44-.51.74-.97.74Z"/>
      <path class="cls-1" d="m197.77,47.98H46.17c-.65,0-1.13-.62-.97-1.25L57.22.75c.12-.44.51-.75.97-.75h151.6c.65,0,1.13.62.97,1.25l-12.01,45.98c-.12.44-.51.75-.97.75Z"/>
      <path class="cls-1" d="m159.32,132.7h-62.44c-.66,0-1.14-.62-.97-1.26l12.23-45.98c.12-.44.51-.74.97-.74h62.65c.66,0,1.14.63.97,1.26l-12.44,45.98c-.12.44-.51.74-.97.74Z"/>
    </g>
  </g>
</svg>