<?xml version="1.0" encoding="UTF-8"?>
<svg id="Layer_2" data-name="Layer 2" xmlns="http://www.w3.org/2000/svg" viewBox="0 0 434.5 141.26">
  <defs>
    <style>
      .cls-1 {
        fill: #fff;
      }
    </style>
  </defs>
  <g id="Layer_1-2" data-name="Layer 1">
    <g>
      <path class="cls-1" d="m153.94,85.69c-2.1,5.86-6.76,9.76-15.02,9.76-8.86,0-16.52-6.01-16.97-14.42h51.97c.15-.45.45-3.9.45-7.06,0-24.03-14.27-38.3-37.4-38.3-19.38,0-37.25,15.32-37.25,39.35s18.32,39.8,38.9,39.8c18.92,0,30.79-10.81,34.39-23.73l-19.08-5.41Zm-31.54-19.38c.45-5.56,5.26-12.62,14.87-12.62,10.81,0,14.72,6.91,15.02,12.62h-29.89Zm95.07,74.95l45.96-103.34h-24.18l-16.52,39.95-18.17-39.95h-25.53l31.39,64.59-16.97,38.75h24.03Zm80.35-71.49c0-7.51,4.81-13.07,12.32-13.07,8.26,0,12.17,5.56,12.17,12.92v42.96h22.83v-46.86c0-16.37-8.41-29.74-27.19-29.74-7.66,0-16.82,3.46-20.88,10.51v-8.56h-22.08v74.65h22.83v-42.81Zm89.36,0c0-7.51,4.81-13.07,12.32-13.07,8.26,0,12.17,5.56,12.17,12.92v42.96h22.83v-46.86c0-16.37-8.41-29.74-27.19-29.74-7.66,0-16.82,3.46-20.88,10.51v-8.56h-22.08v74.65h22.83v-42.81Z"/>
      <g>
        <path class="cls-1" d="m26.9,112.57H.52c-.34,0-.59-.32-.5-.65L20.33,35.35c.06-.23.26-.38.5-.38h26.39c.34,0,.59.32.5.65l-20.32,76.58c-.06.23-.26.38-.5.38Z"/>
        <path class="cls-1" d="m101.98,24.74H23.81c-.34,0-.58-.32-.5-.65L29.51.39c.06-.23.26-.39.5-.39h78.17c.34,0,.58.32.5.65l-6.2,23.71c-.06.23-.26.39-.5.39Z"/>
        <path class="cls-1" d="m82.16,68.43h-32.2c-.34,0-.59-.32-.5-.65l6.31-23.71c.06-.23.26-.38.5-.38h32.31c.34,0,.59.32.5.65l-6.41,23.71c-.06.22-.26.38-.5.38Z"/>
      </g>
    </g>
  </g>
</svg>