<?xml version="1.0" encoding="utf-8"?>
<!-- Generator: Adobe Illustrator 27.6.1, SVG Export Plug-In . SVG Version: 6.00 Build 0)  -->
<svg version="1.1" id="Capa_1" xmlns="http://www.w3.org/2000/svg" xmlns:xlink="http://www.w3.org/1999/xlink" x="0px" y="0px"
	 viewBox="0 0 363.1 123.3" style="enable-background:new 0 0 363.1 123.3;" xml:space="preserve">
<style type="text/css">
	.st0{opacity:0.47;fill-rule:evenodd;clip-rule:evenodd;fill:#644FA1;enable-background:new    ;}
	.st1{opacity:0.9;}
	.st2{fill-rule:evenodd;clip-rule:evenodd;fill:#644FA1;}
	.st3{fill:#FFFFFF;}
</style>
<g id="Capa_2_1_">
	<g id="Capa_1-2">
		<path id="path-6" class="st0" d="M363,123.3c0,0-16.8-66.7-51.1-70.6c-34.3-3.8-60.6,26.1-101.9,22.1
			c-36.5-3.5-61.7-64.1-137.3-55.1C17.1,26.3-0.1,123.3-0.1,123.3l0,0H363L363,123.3z"/>
		<g class="st1">
			<path id="path-5" class="st2" d="M363.1,123.3c0,0-25.1-51.9-57.1-62.9c-29.8-10.3-64.3,6.7-105.2-0.8S128.3,17.7,63.5,37.5
				s-63.6,85.8-63.6,85.8l0,0H363l0,0H363.1z"/>
		</g>
	</g>
</g>
<g>
	<path class="st3" d="M154.5,95.5h-2l-0.4,1H151l1.9-5.1h1.3l1.9,5.1h-1.2L154.5,95.5z M152.9,94.5h1.2l-0.6-1.8L152.9,94.5z"/>
	<path class="st3" d="M156.7,96.6v-5.2h1.1v5.2H156.7z"/>
	<path class="st3" d="M158.7,96.6v-5.2h1.1v5.2H158.7z"/>
	<path class="st3" d="M164.8,94.1c-0.1,0-0.2,0-0.3,0c-0.4,0-0.8,0.3-0.8,1v1.6h-1.1V93h1.1v0.5c0.2-0.4,0.6-0.5,0.9-0.5
		c0.1,0,0.2,0,0.3,0L164.8,94.1L164.8,94.1z"/>
	<path class="st3" d="M166,91.3c0.4,0,0.6,0.3,0.6,0.6c0,0.4-0.3,0.6-0.6,0.6s-0.6-0.3-0.6-0.6C165.4,91.5,165.7,91.3,166,91.3z
		 M165.5,96.6V93h1.1v3.6H165.5z"/>
	<path class="st3" d="M168.3,96.5c0.1,0.3,0.4,0.6,0.8,0.6c0.5,0,0.9-0.3,0.9-0.9V96c-0.1,0.2-0.4,0.4-1,0.4c-0.9,0-1.7-0.7-1.7-1.7
		c0-0.9,0.7-1.7,1.7-1.7c0.6,0,0.9,0.3,1,0.4V93h1v3.1c0,1-0.6,1.9-1.9,1.9c-1,0-1.7-0.6-1.8-1.3L168.3,96.5z M169.9,94.7
		c0-0.5-0.4-0.8-0.8-0.8s-0.8,0.3-0.8,0.8s0.3,0.8,0.8,0.8C169.6,95.5,169.9,95.2,169.9,94.7z"/>
	<path class="st3" d="M173,96.6h-1.1v-5.2h1.1v1.9c0.2-0.2,0.6-0.3,0.9-0.3c0.9,0,1.4,0.6,1.4,1.4v2.2h-1.1v-2.1
		c0-0.4-0.2-0.6-0.6-0.6c-0.3,0-0.6,0.2-0.6,0.6L173,96.6L173,96.6z"/>
	<path class="st3" d="M177.5,93h0.7v1h-0.7v1.3c0,0.3,0.2,0.4,0.4,0.4c0.1,0,0.2,0,0.3,0v0.9c0,0-0.2,0.1-0.6,0.1
		c-0.7,0-1.2-0.4-1.2-1.2V94h-0.6v-1h0.2c0.4,0,0.6-0.3,0.6-0.6v-0.5h1L177.5,93L177.5,93z"/>
	<path class="st3" d="M179.7,95.4c0,0.2,0.2,0.5,0.6,0.5c0.3,0,0.4-0.2,0.4-0.3c0-0.1-0.1-0.2-0.4-0.3l-0.4-0.1
		c-0.8-0.2-1.1-0.6-1.1-1.1c0-0.7,0.6-1.2,1.4-1.2c1,0,1.4,0.6,1.4,1.1l-0.9,0.2c0-0.2-0.2-0.4-0.5-0.4c-0.2,0-0.4,0.1-0.4,0.3
		c0,0.2,0.1,0.2,0.3,0.3l0.5,0.1c0.7,0.2,1.1,0.6,1.1,1.1c0,0.6-0.5,1.2-1.4,1.2c-1.1,0-1.5-0.7-1.5-1.1L179.7,95.4z"/>
	<path class="st3" d="M186.5,94.1c-0.1,0-0.2,0-0.3,0c-0.4,0-0.8,0.3-0.8,1v1.6h-1.1V93h1.1v0.5c0.2-0.4,0.6-0.5,0.9-0.5
		c0.1,0,0.2,0,0.3,0L186.5,94.1L186.5,94.1z"/>
	<path class="st3" d="M190.3,95.5c-0.2,0.6-0.7,1.1-1.6,1.1c-1,0-1.9-0.7-1.9-1.9c0-1.2,0.9-1.9,1.8-1.9c1.1,0,1.8,0.7,1.8,1.8
		c0,0.2,0,0.3,0,0.3h-2.5c0,0.4,0.4,0.7,0.8,0.7c0.4,0,0.6-0.2,0.7-0.5L190.3,95.5z M189.3,94.3c0-0.3-0.2-0.6-0.7-0.6
		s-0.7,0.3-0.7,0.6H189.3z"/>
	<path class="st3" d="M191.7,95.4c0,0.2,0.2,0.5,0.6,0.5c0.3,0,0.4-0.2,0.4-0.3c0-0.1-0.1-0.2-0.4-0.3l-0.4-0.1
		c-0.8-0.2-1.1-0.6-1.1-1.1c0-0.7,0.6-1.2,1.4-1.2c1,0,1.4,0.6,1.4,1.1l-0.9,0.2c0-0.2-0.2-0.4-0.5-0.4c-0.2,0-0.4,0.1-0.4,0.3
		c0,0.2,0.1,0.2,0.3,0.3l0.5,0.1c0.7,0.2,1.1,0.6,1.1,1.1c0,0.6-0.5,1.2-1.4,1.2c-1.1,0-1.5-0.7-1.5-1.1L191.7,95.4z"/>
	<path class="st3" d="M197.7,95.5c-0.2,0.6-0.7,1.1-1.6,1.1c-1,0-1.9-0.7-1.9-1.9c0-1.2,0.9-1.9,1.8-1.9c1.1,0,1.8,0.7,1.8,1.8
		c0,0.2,0,0.3,0,0.3h-2.5c0,0.4,0.4,0.7,0.8,0.7c0.4,0,0.6-0.2,0.7-0.5L197.7,95.5z M196.7,94.3c0-0.3-0.2-0.6-0.7-0.6
		s-0.7,0.3-0.7,0.6H196.7z"/>
	<path class="st3" d="M200.7,94.1c-0.1,0-0.2,0-0.3,0c-0.4,0-0.8,0.3-0.8,1v1.6h-1.1V93h1.1v0.5c0.2-0.4,0.6-0.5,0.9-0.5
		c0.1,0,0.2,0,0.3,0L200.7,94.1L200.7,94.1z"/>
	<path class="st3" d="M203.7,96.6h-1.1l-1.5-3.6h1.2l0.8,2.2l0.8-2.2h1.2L203.7,96.6z"/>
	<path class="st3" d="M208.7,95.5c-0.2,0.6-0.7,1.1-1.6,1.1c-1,0-1.9-0.7-1.9-1.9c0-1.2,0.9-1.9,1.8-1.9c1.1,0,1.8,0.7,1.8,1.8
		c0,0.2,0,0.3,0,0.3h-2.5c0,0.4,0.4,0.7,0.8,0.7c0.4,0,0.6-0.2,0.7-0.5L208.7,95.5z M207.7,94.3c0-0.3-0.2-0.6-0.7-0.6
		s-0.7,0.3-0.7,0.6H207.7z"/>
	<path class="st3" d="M213,95.9c0,0.3,0,0.6,0,0.6h-1c0,0,0-0.2,0-0.3c-0.2,0.2-0.5,0.4-1,0.4c-1,0-1.8-0.8-1.8-1.9s0.7-1.9,1.7-1.9
		c0.6,0,0.9,0.2,1,0.4v-1.9h1.1V95.9z M211.1,95.7c0.4,0,0.8-0.3,0.8-0.9s-0.4-0.9-0.8-0.9c-0.4,0-0.8,0.3-0.8,0.9
		C210.3,95.4,210.7,95.7,211.1,95.7z"/>
	<path class="st3" d="M214.6,95.2c0.4,0,0.7,0.3,0.7,0.7c0,0.4-0.3,0.7-0.7,0.7s-0.7-0.3-0.7-0.7C213.9,95.5,214.2,95.2,214.6,95.2z
		"/>
</g>
<path class="st3" d="M144.1,77.3c2.4,0,4.4,2,4.4,4.4s-2,4.4-4.4,4.4s-4.4-2-4.4-4.4C139.8,79.3,141.7,77.3,144.1,77.3z M144.1,85.1
	c1.9,0,3.3-1.5,3.3-3.4s-1.4-3.4-3.3-3.4c-1.9,0-3.3,1.5-3.3,3.4S142.3,85.1,144.1,85.1z M143.2,81.7c0,0.7,0.4,1.1,1,1.1
	c0.5,0,0.8-0.3,0.9-0.6l1.2,0.4c-0.2,0.8-0.9,1.5-2,1.5c-1.3,0-2.3-0.9-2.3-2.3c0-1.3,1-2.3,2.3-2.3c1.2,0,1.9,0.7,2.1,1.5l-1.2,0.4
	c-0.1-0.3-0.4-0.6-0.9-0.6C143.6,80.6,143.2,81,143.2,81.7z"/>
<g>
	<path class="st3" d="M154.9,81.1l-1.8,0c0-0.1-0.1-0.3-0.1-0.6c0-0.7,0.3-1.4,0.8-1.9c0.5-0.5,1.2-0.8,2.1-0.8
		c0.9,0,1.6,0.2,2.1,0.7s0.8,1.1,0.8,1.8c0,1-0.5,1.8-1.5,2.4l-1.5,0.9c-0.3,0.2-0.4,0.3-0.5,0.5h3.6v1.6H153c0-0.8,0.1-1.4,0.4-2
		c0.3-0.6,0.8-1,1.4-1.4l1.3-0.7c0.3-0.2,0.5-0.4,0.7-0.5c0.1-0.2,0.2-0.4,0.2-0.7c0-0.3-0.1-0.5-0.3-0.7c-0.2-0.2-0.4-0.3-0.8-0.3
		c-0.4,0-0.6,0.1-0.8,0.3s-0.3,0.5-0.3,0.8C154.8,80.8,154.8,81,154.9,81.1z"/>
	<path class="st3" d="M159.7,81.9c0-1.1,0.2-2.1,0.7-2.7c0.6-0.9,1.5-1.3,2.6-1.3c1.2,0,2.1,0.4,2.7,1.3c0.5,0.7,0.7,1.6,0.7,2.7
		s-0.2,2.1-0.7,2.7c-0.6,0.9-1.5,1.3-2.7,1.3c-1.2,0-2-0.4-2.6-1.3C159.9,84,159.7,83.1,159.7,81.9z M161.6,81.9
		c0,0.7,0.1,1.3,0.3,1.7c0.2,0.5,0.6,0.7,1.1,0.7s0.9-0.2,1.1-0.7c0.2-0.4,0.3-1,0.3-1.7c0-0.7-0.1-1.3-0.3-1.7
		c-0.2-0.5-0.6-0.7-1.1-0.7s-0.9,0.2-1.1,0.7C161.6,80.6,161.6,81.2,161.6,81.9z"/>
	<path class="st3" d="M169,81.1l-1.8,0c0-0.1-0.1-0.3-0.1-0.6c0-0.7,0.3-1.4,0.8-1.9c0.5-0.5,1.2-0.8,2.1-0.8c0.9,0,1.6,0.2,2.1,0.7
		s0.8,1.1,0.8,1.8c0,1-0.5,1.8-1.5,2.4l-1.5,0.9c-0.3,0.2-0.4,0.3-0.5,0.5h3.6v1.6h-5.9c0-0.8,0.1-1.4,0.4-2c0.3-0.6,0.8-1,1.4-1.4
		l1.3-0.7c0.3-0.2,0.5-0.4,0.7-0.5c0.1-0.2,0.2-0.4,0.2-0.7c0-0.3-0.1-0.5-0.3-0.7c-0.2-0.2-0.4-0.3-0.8-0.3c-0.4,0-0.6,0.1-0.8,0.3
		s-0.3,0.5-0.3,0.8C168.9,80.8,168.9,81,169,81.1z"/>
	<path class="st3" d="M173.5,84.2v-1.9l3.2-4.2h2.3v4.6h1.2v1.6H179v1.6h-1.9v-1.6H173.5z M177.1,82.6V80l-2,2.6H177.1z"/>
	<path class="st3" d="M186.2,85.8h-1.9v-8.5h5.5v1.8h-3.6v1.8h3.2v1.7h-3.1V85.8z"/>
	<path class="st3" d="M194.6,83.7l1.5,0.4c-0.2,0.6-0.5,1-0.9,1.4c-0.5,0.4-1.1,0.5-1.8,0.5c-0.9,0-1.6-0.3-2.2-0.9
		c-0.6-0.6-0.9-1.3-0.9-2.3c0-0.9,0.3-1.7,0.9-2.3s1.3-0.9,2.1-0.9c0.9,0,1.7,0.3,2.2,0.8s0.8,1.3,0.8,2.2c0,0.3,0,0.5,0,0.6H192
		c0,0.3,0.2,0.6,0.4,0.8c0.3,0.2,0.6,0.3,0.9,0.3C194,84.4,194.4,84.2,194.6,83.7z M192,82.1h2.4c0-0.3-0.1-0.5-0.3-0.7
		c-0.2-0.2-0.5-0.3-0.9-0.3c-0.4,0-0.6,0.1-0.8,0.3S192.1,81.8,192,82.1z"/>
	<path class="st3" d="M199.6,88.1h-1.9l1.4-3.1l-2.5-5.2h2l1.5,3.2l1.3-3.2h1.9L199.6,88.1z"/>
	<path class="st3" d="M206.1,82.4v3.4h-1.8v-6h1.8v0.7c0.2-0.3,0.4-0.5,0.7-0.6c0.3-0.1,0.6-0.2,1-0.2c0.7,0,1.3,0.2,1.6,0.7
		c0.4,0.4,0.6,1,0.6,1.7v3.7H208v-3.4c0-0.3-0.1-0.6-0.2-0.8c-0.2-0.2-0.4-0.3-0.7-0.3c-0.3,0-0.5,0.1-0.7,0.3
		C206.1,81.8,206.1,82.1,206.1,82.4z"/>
	<path class="st3" d="M213.2,82.4v3.4h-1.8v-6h1.8v0.7c0.2-0.3,0.4-0.5,0.7-0.6c0.3-0.1,0.6-0.2,1-0.2c0.7,0,1.3,0.2,1.6,0.7
		c0.4,0.4,0.6,1,0.6,1.7v3.7h-1.8v-3.4c0-0.3-0.1-0.6-0.2-0.8c-0.2-0.2-0.4-0.3-0.7-0.3c-0.3,0-0.5,0.1-0.7,0.3
		C213.3,81.8,213.2,82.1,213.2,82.4z"/>
</g>
</svg>
