<?xml version="1.0" encoding="utf-8"?>
<!-- Generator: Adobe Illustrator 24.0.3, SVG Export Plug-In . SVG Version: 6.00 Build 0)  -->
<svg version="1.1" id="Capa_1" xmlns="http://www.w3.org/2000/svg" xmlns:xlink="http://www.w3.org/1999/xlink" x="0px" y="0px"
	 viewBox="0 0 144 144" style="enable-background:new 0 0 144 144;" xml:space="preserve">
<style type="text/css">
	.st0{fill:url(#SVGID_1_);}
</style>
<title>linkedin</title>
<g id="Capa_2_1_">
	<g id="Layer_1">
		<linearGradient id="SVGID_1_" gradientUnits="userSpaceOnUse" x1="72" y1="144.0016" x2="72" y2="-1.566708e-03">
			<stop  offset="0" style="stop-color:#E8859E"/>
			<stop  offset="0.3758" style="stop-color:#EB89A2"/>
			<stop  offset="0.7618" style="stop-color:#F494AE"/>
			<stop  offset="1" style="stop-color:#FD9FBA"/>
		</linearGradient>
		<path class="st0" d="M133.3,0H10.6C4.8-0.1,0.1,4.6,0,10.4v123.2c0.1,5.8,4.8,10.5,10.6,10.4h122.7c5.8,0.1,10.6-4.6,10.7-10.4
			V10.4C143.9,4.6,139.1-0.1,133.3,0z M42.7,122.7H21.4V54h21.4L42.7,122.7L42.7,122.7z M32,44.6c-6.8,0-12.4-5.6-12.3-12.4
			s5.6-12.4,12.4-12.3c6.8,0,12.3,5.6,12.4,12.4C44.4,39.1,38.9,44.6,32,44.6L32,44.6z M122.7,122.7h-21.3V89.3
			c0-8-0.1-18.2-11.1-18.2c-11.1,0-12.8,8.7-12.8,17.6v34H56.1V54h20.5v9.4h0.3c2.8-5.4,9.8-11.1,20.2-11.1
			c21.6,0,25.6,14.2,25.6,32.7L122.7,122.7z"/>
	</g>
</g>
</svg>
