<svg xmlns="http://www.w3.org/2000/svg" xmlns:xlink="http://www.w3.org/1999/xlink" viewBox="0 0 29 20"><defs><style>.cls-1{fill:url(#Degradado_sin_nombre_3);}.cls-2{fill:url(#Degradado_sin_nombre_3-2);}.cls-3{fill:url(#Degradado_sin_nombre_3-3);}</style><linearGradient id="Degradado_sin_nombre_3" x1="14.5" x2="14.5" y2="19" gradientTransform="matrix(1, 0, 0, -1, 0, 20)" gradientUnits="userSpaceOnUse"><stop offset="0" stop-color="#e8859e"/><stop offset="0.38" stop-color="#eb89a2"/><stop offset="0.76" stop-color="#f494ae"/><stop offset="1" stop-color="#fd9fba"/></linearGradient><linearGradient id="Degradado_sin_nombre_3-2" x1="17.15" y1="8.1" x2="17.15" y2="9.4" xlink:href="#Degradado_sin_nombre_3"/><linearGradient id="Degradado_sin_nombre_3-3" y1="8.45" x2="14.5" y2="20" xlink:href="#Degradado_sin_nombre_3"/></defs><title>mail</title><g id="Capa_2" data-name="Capa 2"><g id="Capa_1-2" data-name="Capa 1"><path class="cls-1" d="M4.4,15.5a.6.6,0,0,0,.1.4.76.76,0,0,0,.4.2c.1,0,.2,0,.3-.2l5.7-5.4.1-.1,1.7,1.4a2.41,2.41,0,0,0,1.8.7,2.79,2.79,0,0,0,1.8-.6h.1l1.5-1.3.1-.1.1.1L23.9,16a.37.37,0,0,0,.3.1.6.6,0,0,0,.4-.1.48.48,0,0,0,0-.7L18.8,9.9,29,1V18.5A1.54,1.54,0,0,1,27.5,20H1.5A1.54,1.54,0,0,1,0,18.5V1.5A.75.75,0,0,1,.1,1h0L10.2,9.7,4.5,15.1C4.4,15.2,4.3,15.4,4.4,15.5Z"/><path class="cls-2" d="M16.4,11.9l1.5-1.3Z"/><path class="cls-3" d="M28.2.2,15.7,11.1a1.82,1.82,0,0,1-2.4,0L.8.2A1.85,1.85,0,0,1,1.5,0h26A1.85,1.85,0,0,1,28.2.2Z"/></g></g></svg>